<svg width="73" height="51" viewBox="0 0 73 51" fill="none" xmlns="http://www.w3.org/2000/svg">
<ellipse cx="21.0578" cy="26.3627" rx="21.0578" ry="20.4545" fill="url(#paint0_linear_979_1136)"/>
<ellipse cx="51.9424" cy="24.9975" rx="21.0578" ry="20.4545" fill="url(#paint1_linear_979_1136)"/>
<path d="M63.641 25C63.641 38.8071 52.118 49.9999 37.9038 49.9999C23.6895 49.9999 12.1665 38.8071 12.1665 25C12.1665 11.1929 23.6895 0 37.9038 0C52.118 0 63.641 11.1929 63.641 25Z" fill="url(#paint2_linear_979_1136)"/>
<g filter="url(#filter0_f_979_1136)">
<path d="M16.8173 11.5L37.739 49.4847L58.964 11.5H16.8173Z" stroke="#FCF7FA" stroke-opacity="0.55" stroke-width="0.5"/>
</g>
<g filter="url(#filter1_d_979_1136)">
<path d="M13.0605 29.604L9.91446 27.382V26.205L13.0605 23.961V25.149L10.8055 26.788L13.0605 28.427V29.604ZM13.908 30L15.8 21.09H16.999L18.902 30H17.725L17.318 27.756H15.503L15.074 30H13.908ZM15.668 26.865H17.153L16.405 22.85L15.668 26.865ZM21.181 30.088C20.6457 30.088 20.246 29.8937 19.982 29.505C19.718 29.109 19.586 28.4417 19.586 27.503V26.271C19.586 25.787 19.6264 25.3397 19.707 24.929C19.7877 24.511 19.938 24.1773 20.158 23.928C20.3854 23.6787 20.7154 23.554 21.148 23.554C21.3607 23.554 21.555 23.6017 21.731 23.697C21.907 23.7923 22.0647 23.9097 22.204 24.049V21.09H23.381V30H22.204V29.593C22.0647 29.7397 21.9107 29.8607 21.742 29.956C21.5807 30.044 21.3937 30.088 21.181 30.088ZM21.478 29.164C21.588 29.164 21.7054 29.1457 21.83 29.109C21.9547 29.065 22.0794 29.0027 22.204 28.922V24.753C22.1014 24.6797 21.9877 24.6173 21.863 24.566C21.7384 24.5073 21.6027 24.478 21.456 24.478C21.1847 24.478 21.0014 24.61 20.906 24.874C20.8107 25.1307 20.763 25.4423 20.763 25.809V27.602C20.763 27.8953 20.7777 28.163 20.807 28.405C20.8437 28.6397 20.9134 28.8267 21.016 28.966C21.1187 29.098 21.2727 29.164 21.478 29.164ZM24.3753 31.606C24.2799 31.606 24.1736 31.5987 24.0563 31.584C23.9463 31.5767 23.8509 31.5583 23.7703 31.529V30.682C23.8069 30.6893 23.8583 30.6967 23.9243 30.704C23.9903 30.7113 24.0416 30.715 24.0783 30.715C24.2469 30.715 24.3789 30.682 24.4743 30.616C24.5696 30.55 24.6356 30.4583 24.6723 30.341C24.7163 30.2237 24.7383 30.0917 24.7383 29.945V23.642H25.9153V30.066C25.9153 30.5647 25.7759 30.946 25.4973 31.21C25.2259 31.474 24.8519 31.606 24.3753 31.606ZM24.7383 22.696V21.464H25.9263V22.696H24.7383ZM27.1084 30V23.642H28.2854V24.269C28.4981 24.071 28.7327 23.9023 28.9894 23.763C29.2461 23.6237 29.5284 23.554 29.8364 23.554C30.0931 23.554 30.2874 23.62 30.4194 23.752C30.5587 23.884 30.6541 24.049 30.7054 24.247C30.7641 24.445 30.7934 24.6467 30.7934 24.852V30H29.6164V25.193C29.6164 24.9657 29.5834 24.7897 29.5174 24.665C29.4514 24.5403 29.3157 24.478 29.1104 24.478C28.9784 24.478 28.8391 24.5183 28.6924 24.599C28.5531 24.6723 28.4174 24.764 28.2854 24.874V30H27.1084ZM33.0864 30.088C32.8371 30.088 32.6171 30.0183 32.4264 29.879C32.2357 29.7323 32.0854 29.549 31.9754 29.329C31.8654 29.1017 31.8104 28.8633 31.8104 28.614C31.8104 28.218 31.8764 27.8843 32.0084 27.613C32.1404 27.3417 32.3201 27.1143 32.5474 26.931C32.7821 26.7403 33.0497 26.5753 33.3504 26.436C33.6584 26.2967 33.9811 26.161 34.3184 26.029V25.578C34.3184 25.3213 34.3037 25.1087 34.2744 24.94C34.2451 24.7713 34.1827 24.6467 34.0874 24.566C33.9994 24.478 33.8637 24.434 33.6804 24.434C33.5191 24.434 33.3871 24.4707 33.2844 24.544C33.1891 24.6173 33.1194 24.7237 33.0754 24.863C33.0314 24.995 33.0094 25.1527 33.0094 25.336V25.655L31.8434 25.611C31.8581 24.907 32.0194 24.39 32.3274 24.06C32.6354 23.7227 33.1121 23.554 33.7574 23.554C34.3881 23.554 34.8354 23.7263 35.0994 24.071C35.3634 24.4157 35.4954 24.9143 35.4954 25.567V28.471C35.4954 28.669 35.4991 28.8597 35.5064 29.043C35.5211 29.2263 35.5357 29.3987 35.5504 29.56C35.5724 29.714 35.5907 29.8607 35.6054 30H34.5274C34.5054 29.8827 34.4761 29.736 34.4394 29.56C34.4101 29.3767 34.3881 29.2117 34.3734 29.065C34.3001 29.3143 34.1571 29.549 33.9444 29.769C33.7391 29.9817 33.4531 30.088 33.0864 30.088ZM33.5484 29.076C33.6657 29.076 33.7757 29.043 33.8784 28.977C33.9811 28.911 34.0727 28.8377 34.1534 28.757C34.2341 28.669 34.2891 28.5993 34.3184 28.548V26.744C34.1351 26.8467 33.9627 26.9493 33.8014 27.052C33.6401 27.1547 33.4971 27.2647 33.3724 27.382C33.2551 27.492 33.1597 27.6203 33.0864 27.767C33.0204 27.9063 32.9874 28.0677 32.9874 28.251C32.9874 28.5077 33.0351 28.7093 33.1304 28.856C33.2257 29.0027 33.3651 29.076 33.5484 29.076ZM37.704 30V22.014H36.197V21.09H40.41V22.014H38.947V30H37.704ZM42.801 30.088C42.3024 30.088 41.9174 29.9927 41.646 29.802C41.3747 29.604 41.184 29.318 41.074 28.944C40.9714 28.5627 40.92 28.097 40.92 27.547V26.095C40.92 25.5303 40.975 25.061 41.085 24.687C41.195 24.313 41.3857 24.0307 41.657 23.84C41.9357 23.6493 42.317 23.554 42.801 23.554C43.3364 23.554 43.7287 23.664 43.978 23.884C44.2347 24.104 44.4034 24.423 44.484 24.841C44.5647 25.2517 44.605 25.7467 44.605 26.326V26.843H42.097V28.119C42.097 28.3757 42.119 28.5847 42.163 28.746C42.2144 28.9073 42.2914 29.0283 42.394 29.109C42.504 29.1823 42.6434 29.219 42.812 29.219C42.988 29.219 43.12 29.1787 43.208 29.098C43.3034 29.01 43.3657 28.889 43.395 28.735C43.4317 28.5737 43.45 28.3867 43.45 28.174V27.789H44.594V28.031C44.594 28.669 44.4584 29.1713 44.187 29.538C43.9157 29.9047 43.4537 30.088 42.801 30.088ZM42.097 26.205H43.45V25.633C43.45 25.369 43.4354 25.149 43.406 24.973C43.3767 24.7897 43.3144 24.654 43.219 24.566C43.131 24.4707 42.988 24.423 42.79 24.423C42.5994 24.423 42.4527 24.467 42.35 24.555C42.2547 24.643 42.1887 24.7933 42.152 25.006C42.1154 25.2113 42.097 25.4973 42.097 25.864V26.205ZM47.4089 30.088C46.8882 30.088 46.4922 29.9853 46.2209 29.78C45.9569 29.5673 45.7772 29.2703 45.6819 28.889C45.5939 28.5077 45.5499 28.064 45.5499 27.558V26.095C45.5499 25.5597 45.5976 25.105 45.6929 24.731C45.7882 24.3497 45.9679 24.06 46.2319 23.862C46.5032 23.6567 46.8956 23.554 47.4089 23.554C47.8709 23.554 48.2266 23.631 48.4759 23.785C48.7326 23.9317 48.9086 24.1553 49.0039 24.456C49.0992 24.7493 49.1469 25.116 49.1469 25.556V25.93H48.0799V25.545C48.0799 25.2663 48.0616 25.0463 48.0249 24.885C47.9882 24.7237 47.9222 24.6063 47.8269 24.533C47.7316 24.4597 47.5959 24.423 47.4199 24.423C47.2292 24.423 47.0826 24.467 46.9799 24.555C46.8772 24.643 46.8076 24.7933 46.7709 25.006C46.7416 25.2113 46.7269 25.4937 46.7269 25.853V27.855C46.7269 28.3977 46.7782 28.7607 46.8809 28.944C46.9836 29.1273 47.1669 29.219 47.4309 29.219C47.6289 29.219 47.7719 29.175 47.8599 29.087C47.9552 28.9917 48.0139 28.8597 48.0359 28.691C48.0652 28.5223 48.0799 28.3317 48.0799 28.119V27.602H49.1469V28.042C49.1469 28.4673 49.0956 28.834 48.9929 29.142C48.8976 29.45 48.7216 29.6847 48.4649 29.846C48.2156 30.0073 47.8636 30.088 47.4089 30.088ZM50.2264 30V21.09H51.4034V24.302C51.616 24.0967 51.8544 23.9207 52.1184 23.774C52.3824 23.6273 52.6757 23.554 52.9984 23.554C53.2477 23.554 53.4384 23.62 53.5704 23.752C53.7097 23.884 53.805 24.049 53.8564 24.247C53.915 24.445 53.9444 24.6467 53.9444 24.852V30H52.7674V25.193C52.7674 24.9657 52.7344 24.7897 52.6684 24.665C52.6024 24.5403 52.4667 24.478 52.2614 24.478C52.122 24.478 51.9754 24.5183 51.8214 24.599C51.6747 24.6797 51.5354 24.7787 51.4034 24.896V30H50.2264ZM54.8168 30L57.2148 21.09H58.2378L55.8288 30H54.8168ZM59.1964 29.604V28.427L61.4624 26.777L59.1964 25.149V23.961L62.3534 26.194V27.371L59.1964 29.604Z" fill="#F4FAFF" fill-opacity="0.8" shape-rendering="crispEdges"/>
</g>
<g filter="url(#filter2_d_979_1136)">
<path d="M46.1325 36.623V36.243L47.1625 34.638C47.2392 34.518 47.3092 34.4064 47.3725 34.303C47.4392 34.1997 47.4925 34.0914 47.5325 33.978C47.5758 33.8614 47.5975 33.728 47.5975 33.578C47.5975 33.3914 47.5675 33.2447 47.5075 33.138C47.4475 33.0314 47.3425 32.978 47.1925 32.978C47.0658 32.978 46.9675 33.013 46.8975 33.083C46.8275 33.153 46.7792 33.2447 46.7525 33.358C46.7258 33.4714 46.7125 33.593 46.7125 33.723V33.858H46.1775V33.718C46.1775 33.4747 46.2092 33.2664 46.2725 33.093C46.3392 32.9164 46.4442 32.7797 46.5875 32.683C46.7342 32.5864 46.9275 32.538 47.1675 32.538C47.4942 32.538 47.7375 32.6314 47.8975 32.818C48.0575 33.0014 48.1375 33.2564 48.1375 33.583C48.1375 33.7564 48.1158 33.908 48.0725 34.038C48.0325 34.168 47.9792 34.2897 47.9125 34.403C47.8458 34.5164 47.7725 34.633 47.6925 34.753L46.7625 36.173H48.0425V36.623H46.1325ZM48.6302 36.623V32.573H49.1952V36.218H50.2302V36.623H48.6302ZM50.6075 36.623L50.6825 32.573H51.2375L51.9525 35.858L52.6725 32.573H53.2225L53.2975 36.623H52.8425L52.7975 33.683L52.1125 36.623H51.7925L51.1125 33.683L51.0675 36.623H50.6075ZM53.9183 36.623V32.573H55.4833V32.978H54.4833V34.328H55.2583V34.728H54.4833V36.623H53.9183ZM55.5635 36.623L56.4235 32.573H56.9685L57.8335 36.623H57.2985L57.1135 35.603H56.2885L56.0935 36.623H55.5635ZM56.3635 35.198H57.0385L56.6985 33.373L56.3635 35.198Z" fill="#F4FAFF" fill-opacity="0.8" shape-rendering="crispEdges"/>
</g>
<defs>
<filter id="filter0_f_979_1136" x="16.1942" y="11.05" width="43.3958" height="39.15" filterUnits="userSpaceOnUse" color-interpolation-filters="sRGB">
<feFlood flood-opacity="0" result="BackgroundImageFix"/>
<feBlend mode="normal" in="SourceGraphic" in2="BackgroundImageFix" result="shape"/>
<feGaussianBlur stdDeviation="0.1" result="effect1_foregroundBlur_979_1136"/>
</filter>
<filter id="filter1_d_979_1136" x="5.91443" y="21.0898" width="60.439" height="18.5156" filterUnits="userSpaceOnUse" color-interpolation-filters="sRGB">
<feFlood flood-opacity="0" result="BackgroundImageFix"/>
<feColorMatrix in="SourceAlpha" type="matrix" values="0 0 0 0 0 0 0 0 0 0 0 0 0 0 0 0 0 0 127 0" result="hardAlpha"/>
<feOffset dy="4"/>
<feGaussianBlur stdDeviation="2"/>
<feComposite in2="hardAlpha" operator="out"/>
<feColorMatrix type="matrix" values="0 0 0 0 0 0 0 0 0 0 0 0 0 0 0 0 0 0 0.5 0"/>
<feBlend mode="normal" in2="BackgroundImageFix" result="effect1_dropShadow_979_1136"/>
<feBlend mode="normal" in="SourceGraphic" in2="effect1_dropShadow_979_1136" result="shape"/>
</filter>
<filter id="filter2_d_979_1136" x="42.1324" y="32.5371" width="19.701" height="12.0859" filterUnits="userSpaceOnUse" color-interpolation-filters="sRGB">
<feFlood flood-opacity="0" result="BackgroundImageFix"/>
<feColorMatrix in="SourceAlpha" type="matrix" values="0 0 0 0 0 0 0 0 0 0 0 0 0 0 0 0 0 0 127 0" result="hardAlpha"/>
<feOffset dy="4"/>
<feGaussianBlur stdDeviation="2"/>
<feComposite in2="hardAlpha" operator="out"/>
<feColorMatrix type="matrix" values="0 0 0 0 0 0 0 0 0 0 0 0 0 0 0 0 0 0 0.25 0"/>
<feBlend mode="normal" in2="BackgroundImageFix" result="effect1_dropShadow_979_1136"/>
<feBlend mode="normal" in="SourceGraphic" in2="effect1_dropShadow_979_1136" result="shape"/>
</filter>
<linearGradient id="paint0_linear_979_1136" x1="1.3799e-07" y1="26.2488" x2="42.2036" y2="26.2488" gradientUnits="userSpaceOnUse">
<stop stop-color="#FF003D" stop-opacity="0.5"/>
<stop offset="1" stop-color="#DBB8E1" stop-opacity="0"/>
</linearGradient>
<linearGradient id="paint1_linear_979_1136" x1="73.2355" y1="24.9977" x2="31.0699" y2="26.2639" gradientUnits="userSpaceOnUse">
<stop stop-color="#AD00FF" stop-opacity="0.5"/>
<stop offset="0.343046" stop-color="#D737DA" stop-opacity="0.41"/>
<stop offset="0.63633" stop-color="#9F46DC" stop-opacity="0"/>
<stop offset="1" stop-color="#2B3EEE" stop-opacity="0.447917"/>
<stop offset="1" stop-color="#033AA5" stop-opacity="0"/>
</linearGradient>
<linearGradient id="paint2_linear_979_1136" x1="12.4126" y1="27.5" x2="62.9948" y2="28.4421" gradientUnits="userSpaceOnUse">
<stop stop-color="#DBB8E1"/>
<stop offset="1" stop-color="#0057FF" stop-opacity="0.79"/>
</linearGradient>
</defs>
</svg>
