<svg width="47" height="31" viewBox="0 0 47 31" fill="none" xmlns="http://www.w3.org/2000/svg">
<ellipse cx="14.3849" cy="15.1841" rx="12.3849" ry="11.7818" fill="url(#paint0_linear_979_482)"/>
<ellipse cx="32.549" cy="14.399" rx="12.3849" ry="11.7818" fill="url(#paint1_linear_979_482)"/>
<path d="M39.4301 14.4C39.4301 22.3529 32.6529 28.7999 24.2929 28.7999C15.9329 28.7999 9.15576 22.3529 9.15576 14.4C9.15576 6.44709 15.9329 0 24.2929 0C32.6529 0 39.4301 6.44709 39.4301 14.4Z" fill="url(#paint2_linear_979_482)"/>
<g filter="url(#filter0_f_979_482)">
<path d="M11.9843 6.68078L24.1965 28.395L36.5856 6.68078H11.9843Z" stroke="#FCF7FA" stroke-opacity="0.55" stroke-width="0.4"/>
</g>
<g filter="url(#filter1_d_979_482)">
<path d="M6.4719 17.712L4.1839 16.096V15.24L6.4719 13.608V14.472L4.8319 15.664L6.4719 16.856V17.712ZM7.08828 18L8.46428 11.52H9.33628L10.7203 18H9.86428L9.56828 16.368H8.24828L7.93628 18H7.08828ZM8.36828 15.72H9.44828L8.90428 12.8L8.36828 15.72ZM12.3778 18.064C11.9884 18.064 11.6978 17.9227 11.5058 17.64C11.3138 17.352 11.2178 16.8667 11.2178 16.184V15.288C11.2178 14.936 11.2471 14.6107 11.3058 14.312C11.3644 14.008 11.4738 13.7653 11.6338 13.584C11.7991 13.4027 12.0391 13.312 12.3538 13.312C12.5084 13.312 12.6498 13.3467 12.7778 13.416C12.9058 13.4853 13.0204 13.5707 13.1218 13.672V11.52H13.9778V18H13.1218V17.704C13.0204 17.8107 12.9084 17.8987 12.7858 17.968C12.6684 18.032 12.5324 18.064 12.3778 18.064ZM12.5938 17.392C12.6738 17.392 12.7591 17.3787 12.8498 17.352C12.9404 17.32 13.0311 17.2747 13.1218 17.216V14.184C13.0471 14.1307 12.9644 14.0853 12.8738 14.048C12.7831 14.0053 12.6844 13.984 12.5778 13.984C12.3804 13.984 12.2471 14.08 12.1778 14.272C12.1084 14.4587 12.0738 14.6853 12.0738 14.952V16.256C12.0738 16.4693 12.0844 16.664 12.1058 16.84C12.1324 17.0107 12.1831 17.1467 12.2578 17.248C12.3324 17.344 12.4444 17.392 12.5938 17.392ZM14.7008 19.168C14.6315 19.168 14.5542 19.1627 14.4688 19.152C14.3888 19.1467 14.3195 19.1333 14.2608 19.112V18.496C14.2875 18.5013 14.3248 18.5067 14.3728 18.512C14.4208 18.5173 14.4582 18.52 14.4848 18.52C14.6075 18.52 14.7035 18.496 14.7728 18.448C14.8422 18.4 14.8902 18.3333 14.9168 18.248C14.9488 18.1627 14.9648 18.0667 14.9648 17.96V13.376H15.8208V18.048C15.8208 18.4107 15.7195 18.688 15.5168 18.88C15.3195 19.072 15.0475 19.168 14.7008 19.168ZM14.9648 12.688V11.792H15.8288V12.688H14.9648ZM16.6886 18V13.376H17.5446V13.832C17.6993 13.688 17.8699 13.5653 18.0566 13.464C18.2433 13.3627 18.4486 13.312 18.6726 13.312C18.8593 13.312 19.0006 13.36 19.0966 13.456C19.1979 13.552 19.2673 13.672 19.3046 13.816C19.3473 13.96 19.3686 14.1067 19.3686 14.256V18H18.5126V14.504C18.5126 14.3387 18.4886 14.2107 18.4406 14.12C18.3926 14.0293 18.2939 13.984 18.1446 13.984C18.0486 13.984 17.9473 14.0133 17.8406 14.072C17.7393 14.1253 17.6406 14.192 17.5446 14.272V18H16.6886ZM21.0362 18.064C20.8549 18.064 20.6949 18.0133 20.5562 17.912C20.4175 17.8053 20.3082 17.672 20.2282 17.512C20.1482 17.3467 20.1082 17.1733 20.1082 16.992C20.1082 16.704 20.1562 16.4613 20.2522 16.264C20.3482 16.0667 20.4789 15.9013 20.6442 15.768C20.8149 15.6293 21.0095 15.5093 21.2282 15.408C21.4522 15.3067 21.6869 15.208 21.9322 15.112V14.784C21.9322 14.5973 21.9215 14.4427 21.9002 14.32C21.8789 14.1973 21.8335 14.1067 21.7642 14.048C21.7002 13.984 21.6015 13.952 21.4682 13.952C21.3509 13.952 21.2549 13.9787 21.1802 14.032C21.1109 14.0853 21.0602 14.1627 21.0282 14.264C20.9962 14.36 20.9802 14.4747 20.9802 14.608V14.84L20.1322 14.808C20.1429 14.296 20.2602 13.92 20.4842 13.68C20.7082 13.4347 21.0549 13.312 21.5242 13.312C21.9829 13.312 22.3082 13.4373 22.5002 13.688C22.6922 13.9387 22.7882 14.3013 22.7882 14.776V16.888C22.7882 17.032 22.7909 17.1707 22.7962 17.304C22.8069 17.4373 22.8175 17.5627 22.8282 17.68C22.8442 17.792 22.8575 17.8987 22.8682 18H22.0842C22.0682 17.9147 22.0469 17.808 22.0202 17.68C21.9989 17.5467 21.9829 17.4267 21.9722 17.32C21.9189 17.5013 21.8149 17.672 21.6602 17.832C21.5109 17.9867 21.3029 18.064 21.0362 18.064ZM21.3722 17.328C21.4575 17.328 21.5375 17.304 21.6122 17.256C21.6869 17.208 21.7535 17.1547 21.8122 17.096C21.8709 17.032 21.9109 16.9813 21.9322 16.944V15.632C21.7989 15.7067 21.6735 15.7813 21.5562 15.856C21.4389 15.9307 21.3349 16.0107 21.2442 16.096C21.1589 16.176 21.0895 16.2693 21.0362 16.376C20.9882 16.4773 20.9642 16.5947 20.9642 16.728C20.9642 16.9147 20.9989 17.0613 21.0682 17.168C21.1375 17.2747 21.2389 17.328 21.3722 17.328ZM24.3945 18V12.192H23.2985V11.52H26.3625V12.192H25.2985V18H24.3945ZM28.1014 18.064C27.7387 18.064 27.4587 17.9947 27.2614 17.856C27.0641 17.712 26.9254 17.504 26.8454 17.232C26.7707 16.9547 26.7334 16.616 26.7334 16.216V15.16C26.7334 14.7493 26.7734 14.408 26.8534 14.136C26.9334 13.864 27.0721 13.6587 27.2694 13.52C27.4721 13.3813 27.7494 13.312 28.1014 13.312C28.4907 13.312 28.7761 13.392 28.9574 13.552C29.1441 13.712 29.2667 13.944 29.3254 14.248C29.3841 14.5467 29.4134 14.9067 29.4134 15.328V15.704H27.5894V16.632C27.5894 16.8187 27.6054 16.9707 27.6374 17.088C27.6747 17.2053 27.7307 17.2933 27.8054 17.352C27.8854 17.4053 27.9867 17.432 28.1094 17.432C28.2374 17.432 28.3334 17.4027 28.3974 17.344C28.4667 17.28 28.5121 17.192 28.5334 17.08C28.5601 16.9627 28.5734 16.8267 28.5734 16.672V16.392H29.4054V16.568C29.4054 17.032 29.3067 17.3973 29.1094 17.664C28.9121 17.9307 28.5761 18.064 28.1014 18.064ZM27.5894 15.24H28.5734V14.824C28.5734 14.632 28.5627 14.472 28.5414 14.344C28.5201 14.2107 28.4747 14.112 28.4054 14.048C28.3414 13.9787 28.2374 13.944 28.0934 13.944C27.9547 13.944 27.8481 13.976 27.7734 14.04C27.7041 14.104 27.6561 14.2133 27.6294 14.368C27.6027 14.5173 27.5894 14.7253 27.5894 14.992V15.24ZM31.4526 18.064C31.0739 18.064 30.7859 17.9893 30.5886 17.84C30.3966 17.6853 30.2659 17.4693 30.1966 17.192C30.1326 16.9147 30.1006 16.592 30.1006 16.224V15.16C30.1006 14.7707 30.1353 14.44 30.2046 14.168C30.2739 13.8907 30.4046 13.68 30.5966 13.536C30.7939 13.3867 31.0793 13.312 31.4526 13.312C31.7886 13.312 32.0473 13.368 32.2286 13.48C32.4153 13.5867 32.5433 13.7493 32.6126 13.968C32.6819 14.1813 32.7166 14.448 32.7166 14.768V15.04H31.9406V14.76C31.9406 14.5573 31.9273 14.3973 31.9006 14.28C31.8739 14.1627 31.8259 14.0773 31.7566 14.024C31.6873 13.9707 31.5886 13.944 31.4606 13.944C31.3219 13.944 31.2153 13.976 31.1406 14.04C31.0659 14.104 31.0153 14.2133 30.9886 14.368C30.9673 14.5173 30.9566 14.7227 30.9566 14.984V16.44C30.9566 16.8347 30.9939 17.0987 31.0686 17.232C31.1433 17.3653 31.2766 17.432 31.4686 17.432C31.6126 17.432 31.7166 17.4 31.7806 17.336C31.8499 17.2667 31.8926 17.1707 31.9086 17.048C31.9299 16.9253 31.9406 16.7867 31.9406 16.632V16.256H32.7166V16.576C32.7166 16.8853 32.6793 17.152 32.6046 17.376C32.5353 17.6 32.4073 17.7707 32.2206 17.888C32.0393 18.0053 31.7833 18.064 31.4526 18.064ZM33.5017 18V11.52H34.3577V13.856C34.5123 13.7067 34.6857 13.5787 34.8777 13.472C35.0697 13.3653 35.283 13.312 35.5177 13.312C35.699 13.312 35.8377 13.36 35.9337 13.456C36.035 13.552 36.1043 13.672 36.1417 13.816C36.1843 13.96 36.2057 14.1067 36.2057 14.256V18H35.3497V14.504C35.3497 14.3387 35.3257 14.2107 35.2777 14.12C35.2297 14.0293 35.131 13.984 34.9817 13.984C34.8803 13.984 34.7737 14.0133 34.6617 14.072C34.555 14.1307 34.4537 14.2027 34.3577 14.288V18H33.5017ZM36.8402 18L38.5842 11.52H39.3282L37.5762 18H36.8402ZM40.0253 17.712V16.856L41.6733 15.656L40.0253 14.472V13.608L42.3213 15.232V16.088L40.0253 17.712Z" fill="#F4FAFF" fill-opacity="0.8" shape-rendering="crispEdges"/>
</g>
<g filter="url(#filter2_d_979_482)">
<path d="M29.1762 22.6406V22.3366L30.0002 21.0526C30.0615 20.9566 30.1175 20.8673 30.1682 20.7846C30.2215 20.702 30.2642 20.6153 30.2962 20.5246C30.3309 20.4313 30.3482 20.3246 30.3482 20.2046C30.3482 20.0553 30.3242 19.938 30.2762 19.8526C30.2282 19.7673 30.1442 19.7246 30.0242 19.7246C29.9229 19.7246 29.8442 19.7526 29.7882 19.8086C29.7322 19.8646 29.6935 19.938 29.6722 20.0286C29.6509 20.1193 29.6402 20.2166 29.6402 20.3206V20.4286H29.2122V20.3166C29.2122 20.122 29.2375 19.9553 29.2882 19.8166C29.3415 19.6753 29.4255 19.566 29.5402 19.4886C29.6575 19.4113 29.8122 19.3726 30.0042 19.3726C30.2655 19.3726 30.4602 19.4473 30.5882 19.5966C30.7162 19.7433 30.7802 19.9473 30.7802 20.2086C30.7802 20.3473 30.7629 20.4686 30.7282 20.5726C30.6962 20.6766 30.6535 20.774 30.6002 20.8646C30.5469 20.9553 30.4882 21.0486 30.4242 21.1446L29.6802 22.2806H30.7042V22.6406H29.1762ZM31.1744 22.6406V19.4006H31.6264V22.3166H32.4544V22.6406H31.1744ZM32.7562 22.6406L32.8162 19.4006H33.2602L33.8322 22.0286L34.4082 19.4006H34.8482L34.9082 22.6406H34.5442L34.5082 20.2886L33.9602 22.6406H33.7042L33.1602 20.2886L33.1242 22.6406H32.7562ZM35.4048 22.6406V19.4006H36.6568V19.7246H35.8568V20.8046H36.4768V21.1246H35.8568V22.6406H35.4048ZM36.721 22.6406L37.409 19.4006H37.845L38.537 22.6406H38.109L37.961 21.8246H37.301L37.145 22.6406H36.721ZM37.361 21.5006H37.901L37.629 20.0406L37.361 21.5006Z" fill="#F4FAFF" fill-opacity="0.8" shape-rendering="crispEdges"/>
</g>
<defs>
<filter id="filter0_f_979_482" color-interpolation-filters="sRGB">
<feFlood flood-opacity="0" result="BackgroundImageFix"/>
<feBlend in="SourceGraphic" in2="BackgroundImageFix" result="shape"/>
<feGaussianBlur stdDeviation="0.15" result="effect1_foregroundBlur_979_482"/>
</filter>
<filter id="filter1_d_979_482" color-interpolation-filters="sRGB">
<feFlood flood-opacity="0" result="BackgroundImageFix"/>
<feColorMatrix in="SourceAlpha" values="0 0 0 0 0 0 0 0 0 0 0 0 0 0 0 0 0 0 127 0" result="hardAlpha"/>
<feOffset dy="4"/>
<feGaussianBlur stdDeviation="2"/>
<feComposite in2="hardAlpha" operator="out"/>
<feColorMatrix values="0 0 0 0 0 0 0 0 0 0 0 0 0 0 0 0 0 0 0.5 0"/>
<feBlend in2="BackgroundImageFix" result="effect1_dropShadow_979_482"/>
<feBlend in="SourceGraphic" in2="effect1_dropShadow_979_482" result="shape"/>
</filter>
<filter id="filter2_d_979_482" color-interpolation-filters="sRGB">
<feFlood flood-opacity="0" result="BackgroundImageFix"/>
<feColorMatrix in="SourceAlpha" values="0 0 0 0 0 0 0 0 0 0 0 0 0 0 0 0 0 0 127 0" result="hardAlpha"/>
<feOffset dy="4"/>
<feGaussianBlur stdDeviation="2"/>
<feComposite in2="hardAlpha" operator="out"/>
<feColorMatrix values="0 0 0 0 0 0 0 0 0 0 0 0 0 0 0 0 0 0 0.25 0"/>
<feBlend in2="BackgroundImageFix" result="effect1_dropShadow_979_482"/>
<feBlend in="SourceGraphic" in2="effect1_dropShadow_979_482" result="shape"/>
</filter>
<linearGradient id="paint0_linear_979_482" x1="2" y1="15.1185" x2="26.8217" y2="15.1185" gradientUnits="userSpaceOnUse">
<stop stop-color="#FF003D" stop-opacity="0.5"/>
<stop offset="1" stop-color="#DBB8E1" stop-opacity="0"/>
</linearGradient>
<linearGradient id="paint1_linear_979_482" x1="45.0724" y1="14.3991" x2="20.274" y2="15.1595" gradientUnits="userSpaceOnUse">
<stop stop-color="#AD00FF" stop-opacity="0.5"/>
<stop offset="0.343046" stop-color="#D737DA" stop-opacity="0.41"/>
<stop offset="0.63633" stop-color="#9F46DC" stop-opacity="0"/>
<stop offset="1" stop-color="#2B3EEE" stop-opacity="0.447917"/>
<stop offset="1" stop-color="#033AA5" stop-opacity="0"/>
</linearGradient>
<linearGradient id="paint2_linear_979_482" x1="9.30049" y1="15.84" x2="39.0495" y2="16.4058" gradientUnits="userSpaceOnUse">
<stop stop-color="#DBB8E1"/>
<stop offset="1" stop-color="#0057FF" stop-opacity="0.79"/>
</linearGradient>
</defs>
</svg>
