<svg width="1770" height="1205" viewBox="0 0 1770 1205" fill="none" xmlns="http://www.w3.org/2000/svg">
<circle cx="522" cy="633.832" r="522" fill="url(#paint0_linear_1755_5)"/>
<circle cx="1248" cy="636" r="522" fill="url(#paint1_linear_1755_5)"/>
<path d="M1536 600C1536 931.371 1267.37 1200 936 1200C604.629 1200 336 931.371 336 600C336 268.629 604.629 0 936 0C1267.37 0 1536 268.629 1536 600Z" fill="url(#paint2_linear_1755_5)"/>
<g filter="url(#filter0_f_1755_5)">
<path d="M421.314 337.5L935.226 1185.6L1456.59 337.5H421.314Z" stroke="#FCF7FA" stroke-opacity="0.55" stroke-width="15"/>
</g>
<g filter="url(#filter1_d_1755_5)">
<path d="M266.43 739.12L172.05 672.46V637.15L266.43 569.83V605.47L198.78 654.64L266.43 703.81V739.12ZM291.856 751L348.616 483.7H384.586L441.676 751H406.366L394.156 683.68H339.706L326.836 751H291.856ZM344.656 656.95H389.206L366.766 536.5L344.656 656.95ZM510.048 753.64C493.988 753.64 481.998 747.81 474.078 736.15C466.158 724.27 462.198 704.25 462.198 676.09V639.13C462.198 624.61 463.408 611.19 465.828 598.87C468.248 586.33 472.758 576.32 479.358 568.84C486.178 561.36 496.078 557.62 509.058 557.62C515.438 557.62 521.268 559.05 526.548 561.91C531.828 564.77 536.558 568.29 540.738 572.47V483.7H576.048V751H540.738V738.79C536.558 743.19 531.938 746.82 526.878 749.68C522.038 752.32 516.428 753.64 510.048 753.64ZM518.958 725.92C522.258 725.92 525.778 725.37 529.518 724.27C533.258 722.95 536.998 721.08 540.738 718.66V593.59C537.658 591.39 534.248 589.52 530.508 587.98C526.768 586.22 522.698 585.34 518.298 585.34C510.158 585.34 504.658 589.3 501.798 597.22C498.938 604.92 497.508 614.27 497.508 625.27V679.06C497.508 687.86 497.948 695.89 498.828 703.15C499.928 710.19 502.018 715.8 505.098 719.98C508.178 723.94 512.798 725.92 518.958 725.92ZM605.874 799.18C603.014 799.18 599.824 798.96 596.304 798.52C593.004 798.3 590.144 797.75 587.724 796.87V771.46C588.824 771.68 590.364 771.9 592.344 772.12C594.324 772.34 595.864 772.45 596.964 772.45C602.024 772.45 605.984 771.46 608.844 769.48C611.704 767.5 613.684 764.75 614.784 761.23C616.104 757.71 616.764 753.75 616.764 749.35V560.26H652.074V752.98C652.074 767.94 647.894 779.38 639.534 787.3C631.394 795.22 620.174 799.18 605.874 799.18ZM616.764 531.88V494.92H652.404V531.88H616.764ZM687.869 751V560.26H723.179V579.07C729.559 573.13 736.599 568.07 744.299 563.89C751.999 559.71 760.469 557.62 769.709 557.62C777.409 557.62 783.239 559.6 787.199 563.56C791.379 567.52 794.239 572.47 795.779 578.41C797.539 584.35 798.419 590.4 798.419 596.56V751H763.109V606.79C763.109 599.97 762.119 594.69 760.139 590.95C758.159 587.21 754.089 585.34 747.929 585.34C743.969 585.34 739.789 586.55 735.389 588.97C731.209 591.17 727.139 593.92 723.179 597.22V751H687.869ZM867.208 753.64C859.728 753.64 853.128 751.55 847.408 747.37C841.688 742.97 837.178 737.47 833.878 730.87C830.578 724.05 828.928 716.9 828.928 709.42C828.928 697.54 830.908 687.53 834.868 679.39C838.828 671.25 844.218 664.43 851.038 658.93C858.078 653.21 866.108 648.26 875.128 644.08C884.368 639.9 894.048 635.83 904.168 631.87V618.34C904.168 610.64 903.728 604.26 902.848 599.2C901.968 594.14 900.098 590.4 897.238 587.98C894.598 585.34 890.528 584.02 885.028 584.02C880.188 584.02 876.228 585.12 873.148 587.32C870.288 589.52 868.198 592.71 866.878 596.89C865.558 600.85 864.898 605.58 864.898 611.08V620.65L829.918 619.33C830.358 598.21 835.198 582.7 844.438 572.8C853.678 562.68 867.978 557.62 887.338 557.62C906.258 557.62 919.678 562.79 927.598 573.13C935.518 583.47 939.478 598.43 939.478 618.01V705.13C939.478 711.07 939.588 716.79 939.808 722.29C940.248 727.79 940.688 732.96 941.128 737.8C941.788 742.42 942.338 746.82 942.778 751H910.438C909.778 747.48 908.898 743.08 907.798 737.8C906.918 732.3 906.258 727.35 905.818 722.95C903.618 730.43 899.328 737.47 892.948 744.07C886.788 750.45 878.208 753.64 867.208 753.64ZM881.068 723.28C884.588 723.28 887.888 722.29 890.968 720.31C894.048 718.33 896.798 716.13 899.218 713.71C901.638 711.07 903.288 708.98 904.168 707.44V653.32C898.668 656.4 893.498 659.48 888.658 662.56C883.818 665.64 879.528 668.94 875.788 672.46C872.268 675.76 869.408 679.61 867.208 684.01C865.228 688.19 864.238 693.03 864.238 698.53C864.238 706.23 865.668 712.28 868.528 716.68C871.388 721.08 875.568 723.28 881.068 723.28ZM1005.74 751V511.42H960.526V483.7H1086.92V511.42H1043.03V751H1005.74ZM1158.65 753.64C1143.69 753.64 1132.14 750.78 1124 745.06C1115.86 739.12 1110.14 730.54 1106.84 719.32C1103.76 707.88 1102.22 693.91 1102.22 677.41V633.85C1102.22 616.91 1103.87 602.83 1107.17 591.61C1110.47 580.39 1116.19 571.92 1124.33 566.2C1132.69 560.48 1144.13 557.62 1158.65 557.62C1174.71 557.62 1186.48 560.92 1193.96 567.52C1201.66 574.12 1206.72 583.69 1209.14 596.23C1211.56 608.55 1212.77 623.4 1212.77 640.78V656.29H1137.53V694.57C1137.53 702.27 1138.19 708.54 1139.51 713.38C1141.05 718.22 1143.36 721.85 1146.44 724.27C1149.74 726.47 1153.92 727.57 1158.98 727.57C1164.26 727.57 1168.22 726.36 1170.86 723.94C1173.72 721.3 1175.59 717.67 1176.47 713.05C1177.57 708.21 1178.12 702.6 1178.12 696.22V684.67H1212.44V691.93C1212.44 711.07 1208.37 726.14 1200.23 737.14C1192.09 748.14 1178.23 753.64 1158.65 753.64ZM1137.53 637.15H1178.12V619.99C1178.12 612.07 1177.68 605.47 1176.8 600.19C1175.92 594.69 1174.05 590.62 1171.19 587.98C1168.55 585.12 1164.26 583.69 1158.32 583.69C1152.6 583.69 1148.2 585.01 1145.12 587.65C1142.26 590.29 1140.28 594.8 1139.18 601.18C1138.08 607.34 1137.53 615.92 1137.53 626.92V637.15ZM1296.88 753.64C1281.26 753.64 1269.38 750.56 1261.24 744.4C1253.32 738.02 1247.93 729.11 1245.07 717.67C1242.43 706.23 1241.11 692.92 1241.11 677.74V633.85C1241.11 617.79 1242.54 604.15 1245.4 592.93C1248.26 581.49 1253.65 572.8 1261.57 566.86C1269.71 560.7 1281.48 557.62 1296.88 557.62C1310.74 557.62 1321.41 559.93 1328.89 564.55C1336.59 568.95 1341.87 575.66 1344.73 584.68C1347.59 593.48 1349.02 604.48 1349.02 617.68V628.9H1317.01V617.35C1317.01 608.99 1316.46 602.39 1315.36 597.55C1314.26 592.71 1312.28 589.19 1309.42 586.99C1306.56 584.79 1302.49 583.69 1297.21 583.69C1291.49 583.69 1287.09 585.01 1284.01 587.65C1280.93 590.29 1278.84 594.8 1277.74 601.18C1276.86 607.34 1276.42 615.81 1276.42 626.59V686.65C1276.42 702.93 1277.96 713.82 1281.04 719.32C1284.12 724.82 1289.62 727.57 1297.54 727.57C1303.48 727.57 1307.77 726.25 1310.41 723.61C1313.27 720.75 1315.03 716.79 1315.69 711.73C1316.57 706.67 1317.01 700.95 1317.01 694.57V679.06H1349.02V692.26C1349.02 705.02 1347.48 716.02 1344.4 725.26C1341.54 734.5 1336.26 741.54 1328.56 746.38C1321.08 751.22 1310.52 753.64 1296.88 753.64ZM1372.17 751L1444.11 483.7H1474.8L1402.53 751H1372.17ZM1503.55 739.12V703.81L1571.53 654.31L1503.55 605.47V569.83L1598.26 636.82V672.13L1503.55 739.12Z" fill="#F4FAFF" fill-opacity="0.8" shape-rendering="crispEdges"/>
</g>
<g filter="url(#filter2_d_1755_5)">
<path d="M1145.84 964V950.32L1182.92 892.54C1185.68 888.22 1188.2 884.2 1190.48 880.48C1192.88 876.76 1194.8 872.86 1196.24 868.78C1197.8 864.58 1198.58 859.78 1198.58 854.38C1198.58 847.66 1197.5 842.38 1195.34 838.54C1193.18 834.7 1189.4 832.78 1184 832.78C1179.44 832.78 1175.9 834.04 1173.38 836.56C1170.86 839.08 1169.12 842.38 1168.16 846.46C1167.2 850.54 1166.72 854.92 1166.72 859.6V864.46H1147.46V859.42C1147.46 850.66 1148.6 843.16 1150.88 836.92C1153.28 830.56 1157.06 825.64 1162.22 822.16C1167.5 818.68 1174.46 816.94 1183.1 816.94C1194.86 816.94 1203.62 820.3 1209.38 827.02C1215.14 833.62 1218.02 842.8 1218.02 854.56C1218.02 860.8 1217.24 866.26 1215.68 870.94C1214.24 875.62 1212.32 880 1209.92 884.08C1207.52 888.16 1204.88 892.36 1202 896.68L1168.52 947.8H1214.6V964H1145.84ZM1235.76 964V818.2H1256.1V949.42H1293.36V964H1235.76ZM1306.94 964L1309.64 818.2H1329.62L1355.36 936.46L1381.28 818.2H1401.08L1403.78 964H1387.4L1385.78 858.16L1361.12 964H1349.6L1325.12 858.16L1323.5 964H1306.94ZM1426.13 964V818.2H1482.47V832.78H1446.47V881.38H1474.37V895.78H1446.47V964H1426.13ZM1485.36 964L1516.32 818.2H1535.94L1567.08 964H1547.82L1541.16 927.28H1511.46L1504.44 964H1485.36ZM1514.16 912.7H1538.46L1526.22 847L1514.16 912.7Z" fill="#F4FAFF" fill-opacity="0.8" shape-rendering="crispEdges"/>
</g>
<defs>
<filter id="filter0_f_1755_5" x="403.5" y="325.5" width="1071" height="879" filterUnits="userSpaceOnUse" color-interpolation-filters="sRGB">
<feFlood flood-opacity="0" result="BackgroundImageFix"/>
<feBlend mode="normal" in="SourceGraphic" in2="BackgroundImageFix" result="shape"/>
<feGaussianBlur stdDeviation="2.25" result="effect1_foregroundBlur_1755_5"/>
</filter>
<filter id="filter1_d_1755_5" x="72.0503" y="387.699" width="1626.21" height="515.48" filterUnits="userSpaceOnUse" color-interpolation-filters="sRGB">
<feFlood flood-opacity="0" result="BackgroundImageFix"/>
<feColorMatrix in="SourceAlpha" type="matrix" values="0 0 0 0 0 0 0 0 0 0 0 0 0 0 0 0 0 0 127 0" result="hardAlpha"/>
<feOffset dy="4"/>
<feGaussianBlur stdDeviation="50"/>
<feComposite in2="hardAlpha" operator="out"/>
<feColorMatrix type="matrix" values="0 0 0 0 0 0 0 0 0 0 0 0 0 0 0 0 0 0 0.5 0"/>
<feBlend mode="normal" in2="BackgroundImageFix" result="effect1_dropShadow_1755_5"/>
<feBlend mode="normal" in="SourceGraphic" in2="effect1_dropShadow_1755_5" result="shape"/>
</filter>
<filter id="filter2_d_1755_5" x="1141.84" y="816.939" width="429.237" height="155.061" filterUnits="userSpaceOnUse" color-interpolation-filters="sRGB">
<feFlood flood-opacity="0" result="BackgroundImageFix"/>
<feColorMatrix in="SourceAlpha" type="matrix" values="0 0 0 0 0 0 0 0 0 0 0 0 0 0 0 0 0 0 127 0" result="hardAlpha"/>
<feOffset dy="4"/>
<feGaussianBlur stdDeviation="2"/>
<feComposite in2="hardAlpha" operator="out"/>
<feColorMatrix type="matrix" values="0 0 0 0 0 0 0 0 0 0 0 0 0 0 0 0 0 0 0.25 0"/>
<feBlend mode="normal" in2="BackgroundImageFix" result="effect1_dropShadow_1755_5"/>
<feBlend mode="normal" in="SourceGraphic" in2="effect1_dropShadow_1755_5" result="shape"/>
</filter>
<linearGradient id="paint0_linear_1755_5" x1="3.42063e-06" y1="630.924" x2="1046.18" y2="630.924" gradientUnits="userSpaceOnUse">
<stop stop-color="#FF003D" stop-opacity="0.5"/>
<stop offset="1" stop-color="#DBB8E1" stop-opacity="0"/>
</linearGradient>
<linearGradient id="paint1_linear_1755_5" x1="1775.83" y1="636.005" x2="730.54" y2="666.495" gradientUnits="userSpaceOnUse">
<stop stop-color="#AD00FF" stop-opacity="0.5"/>
<stop offset="0.343046" stop-color="#D737DA" stop-opacity="0.41"/>
<stop offset="0.63633" stop-color="#9F46DC" stop-opacity="0"/>
<stop offset="1" stop-color="#2B3EEE" stop-opacity="0.447917"/>
<stop offset="1" stop-color="#033AA5" stop-opacity="0"/>
</linearGradient>
<linearGradient id="paint2_linear_1755_5" x1="341.737" y1="660.001" x2="1520.96" y2="681.336" gradientUnits="userSpaceOnUse">
<stop stop-color="#DBB8E1"/>
<stop offset="1" stop-color="#0057FF" stop-opacity="0.79"/>
</linearGradient>
</defs>
</svg>
