<svg width="83" height="55" viewBox="0 0 83 55" fill="none" xmlns="http://www.w3.org/2000/svg">
<ellipse cx="23.9425" cy="28.4717" rx="23.9425" ry="22.0909" fill="url(#paint0_linear_593_18)"/>
<ellipse cx="59.0575" cy="26.9971" rx="23.9425" ry="22.0909" fill="url(#paint1_linear_593_18)"/>
<path d="M72.3596 27C72.3596 41.9116 59.258 53.9999 43.0965 53.9999C26.935 53.9999 13.8335 41.9116 13.8335 27C13.8335 12.0883 26.935 0 43.0965 0C59.258 0 72.3596 12.0883 72.3596 27Z" fill="url(#paint2_linear_593_18)"/>
<g filter="url(#filter0_f_593_18)">
<path d="M19.3345 12.55L42.9097 53.2069L66.8267 12.55H19.3345Z" stroke="#FCF7FA" stroke-opacity="0.55" stroke-width="0.8"/>
</g>
<g filter="url(#filter1_d_593_18)">
<path d="M9.62133 33.46L5.33133 30.43V28.825L9.62133 25.765V27.385L6.54633 29.62L9.62133 31.855V33.46ZM10.777 34L13.357 21.85H14.992L17.587 34H15.982L15.427 30.94H12.952L12.367 34H10.777ZM13.177 29.725H15.202L14.182 24.25L13.177 29.725ZM20.6948 34.12C19.9648 34.12 19.4198 33.855 19.0598 33.325C18.6998 32.785 18.5198 31.875 18.5198 30.595V28.915C18.5198 28.255 18.5748 27.645 18.6848 27.085C18.7948 26.515 18.9998 26.06 19.2998 25.72C19.6098 25.38 20.0598 25.21 20.6498 25.21C20.9398 25.21 21.2048 25.275 21.4448 25.405C21.6848 25.535 21.8998 25.695 22.0898 25.885V21.85H23.6948V34H22.0898V33.445C21.8998 33.645 21.6898 33.81 21.4598 33.94C21.2398 34.06 20.9848 34.12 20.6948 34.12ZM21.0998 32.86C21.2498 32.86 21.4098 32.835 21.5798 32.785C21.7498 32.725 21.9198 32.64 22.0898 32.53V26.845C21.9498 26.745 21.7948 26.66 21.6248 26.59C21.4548 26.51 21.2698 26.47 21.0698 26.47C20.6998 26.47 20.4498 26.65 20.3198 27.01C20.1898 27.36 20.1248 27.785 20.1248 28.285V30.73C20.1248 31.13 20.1448 31.495 20.1848 31.825C20.2348 32.145 20.3298 32.4 20.4698 32.59C20.6098 32.77 20.8198 32.86 21.0998 32.86ZM25.0506 36.19C24.9206 36.19 24.7756 36.18 24.6156 36.16C24.4656 36.15 24.3356 36.125 24.2256 36.085V34.93C24.2756 34.94 24.3456 34.95 24.4356 34.96C24.5256 34.97 24.5956 34.975 24.6456 34.975C24.8756 34.975 25.0556 34.93 25.1856 34.84C25.3156 34.75 25.4056 34.625 25.4556 34.465C25.5156 34.305 25.5456 34.125 25.5456 33.925V25.33H27.1506V34.09C27.1506 34.77 26.9606 35.29 26.5806 35.65C26.2106 36.01 25.7006 36.19 25.0506 36.19ZM25.5456 24.04V22.36H27.1656V24.04H25.5456ZM28.7776 34V25.33H30.3826V26.185C30.6726 25.915 30.9926 25.685 31.3426 25.495C31.6926 25.305 32.0776 25.21 32.4976 25.21C32.8476 25.21 33.1126 25.3 33.2926 25.48C33.4826 25.66 33.6126 25.885 33.6826 26.155C33.7626 26.425 33.8026 26.7 33.8026 26.98V34H32.1976V27.445C32.1976 27.135 32.1526 26.895 32.0626 26.725C31.9726 26.555 31.7876 26.47 31.5076 26.47C31.3276 26.47 31.1376 26.525 30.9376 26.635C30.7476 26.735 30.5626 26.86 30.3826 27.01V34H28.7776ZM36.9294 34.12C36.5894 34.12 36.2894 34.025 36.0294 33.835C35.7694 33.635 35.5644 33.385 35.4144 33.085C35.2644 32.775 35.1894 32.45 35.1894 32.11C35.1894 31.57 35.2794 31.115 35.4594 30.745C35.6394 30.375 35.8844 30.065 36.1944 29.815C36.5144 29.555 36.8794 29.33 37.2894 29.14C37.7094 28.95 38.1494 28.765 38.6094 28.585V27.97C38.6094 27.62 38.5894 27.33 38.5494 27.1C38.5094 26.87 38.4244 26.7 38.2944 26.59C38.1744 26.47 37.9894 26.41 37.7394 26.41C37.5194 26.41 37.3394 26.46 37.1994 26.56C37.0694 26.66 36.9744 26.805 36.9144 26.995C36.8544 27.175 36.8244 27.39 36.8244 27.64V28.075L35.2344 28.015C35.2544 27.055 35.4744 26.35 35.8944 25.9C36.3144 25.44 36.9644 25.21 37.8444 25.21C38.7044 25.21 39.3144 25.445 39.6744 25.915C40.0344 26.385 40.2144 27.065 40.2144 27.955V31.915C40.2144 32.185 40.2194 32.445 40.2294 32.695C40.2494 32.945 40.2694 33.18 40.2894 33.4C40.3194 33.61 40.3444 33.81 40.3644 34H38.8944C38.8644 33.84 38.8244 33.64 38.7744 33.4C38.7344 33.15 38.7044 32.925 38.6844 32.725C38.5844 33.065 38.3894 33.385 38.0994 33.685C37.8194 33.975 37.4294 34.12 36.9294 34.12ZM37.5594 32.74C37.7194 32.74 37.8694 32.695 38.0094 32.605C38.1494 32.515 38.2744 32.415 38.3844 32.305C38.4944 32.185 38.5694 32.09 38.6094 32.02V29.56C38.3594 29.7 38.1244 29.84 37.9044 29.98C37.6844 30.12 37.4894 30.27 37.3194 30.43C37.1594 30.58 37.0294 30.755 36.9294 30.955C36.8394 31.145 36.7944 31.365 36.7944 31.615C36.7944 31.965 36.8594 32.24 36.9894 32.44C37.1194 32.64 37.3094 32.74 37.5594 32.74ZM43.2261 34V23.11H41.1711V21.85H46.9161V23.11H44.9211V34H43.2261ZM50.1766 34.12C49.4966 34.12 48.9716 33.99 48.6016 33.73C48.2316 33.46 47.9716 33.07 47.8216 32.56C47.6816 32.04 47.6116 31.405 47.6116 30.655V28.675C47.6116 27.905 47.6866 27.265 47.8366 26.755C47.9866 26.245 48.2466 25.86 48.6166 25.6C48.9966 25.34 49.5166 25.21 50.1766 25.21C50.9066 25.21 51.4416 25.36 51.7816 25.66C52.1316 25.96 52.3616 26.395 52.4716 26.965C52.5816 27.525 52.6366 28.2 52.6366 28.99V29.695H49.2166V31.435C49.2166 31.785 49.2466 32.07 49.3066 32.29C49.3766 32.51 49.4816 32.675 49.6216 32.785C49.7716 32.885 49.9616 32.935 50.1916 32.935C50.4316 32.935 50.6116 32.88 50.7316 32.77C50.8616 32.65 50.9466 32.485 50.9866 32.275C51.0366 32.055 51.0616 31.8 51.0616 31.51V30.985H52.6216V31.315C52.6216 32.185 52.4366 32.87 52.0666 33.37C51.6966 33.87 51.0666 34.12 50.1766 34.12ZM49.2166 28.825H51.0616V28.045C51.0616 27.685 51.0416 27.385 51.0016 27.145C50.9616 26.895 50.8766 26.71 50.7466 26.59C50.6266 26.46 50.4316 26.395 50.1616 26.395C49.9016 26.395 49.7016 26.455 49.5616 26.575C49.4316 26.695 49.3416 26.9 49.2916 27.19C49.2416 27.47 49.2166 27.86 49.2166 28.36V28.825ZM56.4601 34.12C55.7501 34.12 55.2101 33.98 54.8401 33.7C54.4801 33.41 54.2351 33.005 54.1051 32.485C53.9851 31.965 53.9251 31.36 53.9251 30.67V28.675C53.9251 27.945 53.9901 27.325 54.1201 26.815C54.2501 26.295 54.4951 25.9 54.8551 25.63C55.2251 25.35 55.7601 25.21 56.4601 25.21C57.0901 25.21 57.5751 25.315 57.9151 25.525C58.2651 25.725 58.5051 26.03 58.6351 26.44C58.7651 26.84 58.8301 27.34 58.8301 27.94V28.45H57.3751V27.925C57.3751 27.545 57.3501 27.245 57.3001 27.025C57.2501 26.805 57.1601 26.645 57.0301 26.545C56.9001 26.445 56.7151 26.395 56.4751 26.395C56.2151 26.395 56.0151 26.455 55.8751 26.575C55.7351 26.695 55.6401 26.9 55.5901 27.19C55.5501 27.47 55.5301 27.855 55.5301 28.345V31.075C55.5301 31.815 55.6001 32.31 55.7401 32.56C55.8801 32.81 56.1301 32.935 56.4901 32.935C56.7601 32.935 56.9551 32.875 57.0751 32.755C57.2051 32.625 57.2851 32.445 57.3151 32.215C57.3551 31.985 57.3751 31.725 57.3751 31.435V30.73H58.8301V31.33C58.8301 31.91 58.7601 32.41 58.6201 32.83C58.4901 33.25 58.2501 33.57 57.9001 33.79C57.5601 34.01 57.0801 34.12 56.4601 34.12ZM60.3021 34V21.85H61.9071V26.23C62.1971 25.95 62.5221 25.71 62.8821 25.51C63.2421 25.31 63.6421 25.21 64.0821 25.21C64.4221 25.21 64.6821 25.3 64.8621 25.48C65.0521 25.66 65.1821 25.885 65.2521 26.155C65.3321 26.425 65.3721 26.7 65.3721 26.98V34H63.7671V27.445C63.7671 27.135 63.7221 26.895 63.6321 26.725C63.5421 26.555 63.3571 26.47 63.0771 26.47C62.8871 26.47 62.6871 26.525 62.4771 26.635C62.2771 26.745 62.0871 26.88 61.9071 27.04V34H60.3021ZM66.5618 34L69.8318 21.85H71.2268L67.9418 34H66.5618ZM72.5339 33.46V31.855L75.6239 29.605L72.5339 27.385V25.765L76.8389 28.81V30.415L72.5339 33.46Z" fill="#F4FAFF" fill-opacity="0.8" shape-rendering="crispEdges"/>
</g>
<g filter="url(#filter2_d_593_18)">
<path d="M52.5471 43.0742V42.4662L54.1951 39.8982C54.3178 39.7062 54.4298 39.5276 54.5311 39.3622C54.6378 39.1969 54.7231 39.0236 54.7871 38.8422C54.8564 38.6556 54.8911 38.4422 54.8911 38.2022C54.8911 37.9036 54.8431 37.6689 54.7471 37.4982C54.6511 37.3276 54.4831 37.2422 54.2431 37.2422C54.0404 37.2422 53.8831 37.2982 53.7711 37.4102C53.6591 37.5222 53.5818 37.6689 53.5391 37.8502C53.4964 38.0316 53.4751 38.2262 53.4751 38.4342V38.6502H52.6191V38.4262C52.6191 38.0369 52.6698 37.7036 52.7711 37.4262C52.8778 37.1436 53.0458 36.9249 53.2751 36.7702C53.5098 36.6156 53.8191 36.5382 54.2031 36.5382C54.7258 36.5382 55.1151 36.6876 55.3711 36.9862C55.6271 37.2796 55.7551 37.6876 55.7551 38.2102C55.7551 38.4876 55.7204 38.7302 55.6511 38.9382C55.5871 39.1462 55.5018 39.3409 55.3951 39.5222C55.2884 39.7036 55.1711 39.8902 55.0431 40.0822L53.5551 42.3542H55.6031V43.0742H52.5471ZM56.5434 43.0742V36.5942H57.4474V42.4262H59.1034V43.0742H56.5434ZM59.7071 43.0742L59.8271 36.5942H60.7151L61.8591 41.8502L63.0111 36.5942H63.8911L64.0111 43.0742H63.2831L63.2111 38.3702L62.1151 43.0742H61.6031L60.5151 38.3702L60.4431 43.0742H59.7071ZM65.0044 43.0742V36.5942H67.5084V37.2422H65.9084V39.4022H67.1484V40.0422H65.9084V43.0742H65.0044ZM67.6367 43.0742L69.0127 36.5942H69.8847L71.2687 43.0742H70.4127L70.1167 41.4422H68.7967L68.4847 43.0742H67.6367ZM68.9167 40.7942H69.9967L69.4527 37.8742L68.9167 40.7942Z" fill="#F4FAFF" fill-opacity="0.8" shape-rendering="crispEdges"/>
</g>
<defs>
<filter id="filter0_f_593_18" x="18.3401" y="11.8504" width="49.4859" height="42.4496" filterUnits="userSpaceOnUse" color-interpolation-filters="sRGB">
<feFlood flood-opacity="0" result="BackgroundImageFix"/>
<feBlend mode="normal" in="SourceGraphic" in2="BackgroundImageFix" result="shape"/>
<feGaussianBlur stdDeviation="0.15" result="effect1_foregroundBlur_593_18"/>
</filter>
<filter id="filter1_d_593_18" x="1.3313" y="21.8496" width="79.5076" height="22.3398" filterUnits="userSpaceOnUse" color-interpolation-filters="sRGB">
<feFlood flood-opacity="0" result="BackgroundImageFix"/>
<feColorMatrix in="SourceAlpha" type="matrix" values="0 0 0 0 0 0 0 0 0 0 0 0 0 0 0 0 0 0 127 0" result="hardAlpha"/>
<feOffset dy="4"/>
<feGaussianBlur stdDeviation="2"/>
<feComposite in2="hardAlpha" operator="out"/>
<feColorMatrix type="matrix" values="0 0 0 0 0 0 0 0 0 0 0 0 0 0 0 0 0 0 0.5 0"/>
<feBlend mode="normal" in2="BackgroundImageFix" result="effect1_dropShadow_593_18"/>
<feBlend mode="normal" in="SourceGraphic" in2="effect1_dropShadow_593_18" result="shape"/>
</filter>
<filter id="filter2_d_593_18" x="48.5471" y="36.5391" width="26.7217" height="14.5352" filterUnits="userSpaceOnUse" color-interpolation-filters="sRGB">
<feFlood flood-opacity="0" result="BackgroundImageFix"/>
<feColorMatrix in="SourceAlpha" type="matrix" values="0 0 0 0 0 0 0 0 0 0 0 0 0 0 0 0 0 0 127 0" result="hardAlpha"/>
<feOffset dy="4"/>
<feGaussianBlur stdDeviation="2"/>
<feComposite in2="hardAlpha" operator="out"/>
<feColorMatrix type="matrix" values="0 0 0 0 0 0 0 0 0 0 0 0 0 0 0 0 0 0 0.25 0"/>
<feBlend mode="normal" in2="BackgroundImageFix" result="effect1_dropShadow_593_18"/>
<feBlend mode="normal" in="SourceGraphic" in2="effect1_dropShadow_593_18" result="shape"/>
</filter>
<linearGradient id="paint0_linear_593_18" x1="1.56893e-07" y1="28.3487" x2="47.9851" y2="28.3487" gradientUnits="userSpaceOnUse">
<stop stop-color="#FF003D" stop-opacity="0.5"/>
<stop offset="1" stop-color="#DBB8E1" stop-opacity="0"/>
</linearGradient>
<linearGradient id="paint1_linear_593_18" x1="83.2676" y1="26.9973" x2="35.3304" y2="28.5128" gradientUnits="userSpaceOnUse">
<stop stop-color="#AD00FF" stop-opacity="0.5"/>
<stop offset="0.343046" stop-color="#D737DA" stop-opacity="0.41"/>
<stop offset="0.63633" stop-color="#9F46DC" stop-opacity="0"/>
<stop offset="1" stop-color="#2B3EEE" stop-opacity="0.447917"/>
<stop offset="1" stop-color="#033AA5" stop-opacity="0"/>
</linearGradient>
<linearGradient id="paint2_linear_593_18" x1="14.1133" y1="29.7" x2="71.6226" y2="30.8277" gradientUnits="userSpaceOnUse">
<stop stop-color="#DBB8E1"/>
<stop offset="1" stop-color="#0057FF" stop-opacity="0.79"/>
</linearGradient>
</defs>
</svg>
