<svg width="107" height="73" viewBox="0 0 107 73" fill="none" xmlns="http://www.w3.org/2000/svg">
<ellipse cx="30.8656" cy="37.9623" rx="30.8656" ry="29.4545" fill="url(#paint0_linear_979_1193)"/>
<ellipse cx="76.1347" cy="35.9975" rx="30.8656" ry="29.4545" fill="url(#paint1_linear_979_1193)"/>
<path d="M93.2828 35.9999C93.2828 55.8822 76.3929 71.9999 55.5581 71.9999C34.7234 71.9999 17.8335 55.8822 17.8335 35.9999C17.8335 16.1177 34.7234 0 55.5581 0C76.3929 0 93.2828 16.1177 93.2828 35.9999Z" fill="url(#paint2_linear_979_1193)"/>
<g filter="url(#filter0_f_979_1193)">
<path d="M24.8838 16.7L55.3175 70.9832L86.1923 16.7H24.8838Z" stroke="#FCF7FA" stroke-opacity="0.55"/>
</g>
<g filter="url(#filter1_d_979_1193)">
<path d="M11.0137 44.28L5.29375 40.24V38.1L11.0137 34.02V36.18L6.91375 39.16L11.0137 42.14V44.28ZM12.5547 45L15.9947 28.8H18.1747L21.6347 45H19.4947L18.7547 40.92H15.4547L14.6747 45H12.5547ZM15.7547 39.3H18.4547L17.0947 32L15.7547 39.3ZM25.7784 45.16C24.8051 45.16 24.0784 44.8067 23.5984 44.1C23.1184 43.38 22.8784 42.1667 22.8784 40.46V38.22C22.8784 37.34 22.9518 36.5267 23.0984 35.78C23.2451 35.02 23.5184 34.4133 23.9184 33.96C24.3318 33.5067 24.9318 33.28 25.7184 33.28C26.1051 33.28 26.4584 33.3667 26.7784 33.54C27.0984 33.7133 27.3851 33.9267 27.6384 34.18V28.8H29.7784V45H27.6384V44.26C27.3851 44.5267 27.1051 44.7467 26.7984 44.92C26.5051 45.08 26.1651 45.16 25.7784 45.16ZM26.3184 43.48C26.5184 43.48 26.7318 43.4467 26.9584 43.38C27.1851 43.3 27.4118 43.1867 27.6384 43.04V35.46C27.4518 35.3267 27.2451 35.2133 27.0184 35.12C26.7918 35.0133 26.5451 34.96 26.2784 34.96C25.7851 34.96 25.4518 35.2 25.2784 35.68C25.1051 36.1467 25.0184 36.7133 25.0184 37.38V40.64C25.0184 41.1733 25.0451 41.66 25.0984 42.1C25.1651 42.5267 25.2918 42.8667 25.4784 43.12C25.6651 43.36 25.9451 43.48 26.3184 43.48ZM31.5861 47.92C31.4128 47.92 31.2194 47.9067 31.0061 47.88C30.8061 47.8667 30.6328 47.8333 30.4861 47.78V46.24C30.5528 46.2533 30.6461 46.2667 30.7661 46.28C30.8861 46.2933 30.9794 46.3 31.0461 46.3C31.3528 46.3 31.5928 46.24 31.7661 46.12C31.9394 46 32.0594 45.8333 32.1261 45.62C32.2061 45.4067 32.2461 45.1667 32.2461 44.9V33.44H34.3861V45.12C34.3861 46.0267 34.1328 46.72 33.6261 47.2C33.1328 47.68 32.4528 47.92 31.5861 47.92ZM32.2461 31.72V29.48H34.4061V31.72H32.2461ZM36.5555 45V33.44H38.6955V34.58C39.0821 34.22 39.5088 33.9133 39.9755 33.66C40.4421 33.4067 40.9555 33.28 41.5155 33.28C41.9821 33.28 42.3355 33.4 42.5755 33.64C42.8288 33.88 43.0021 34.18 43.0955 34.54C43.2021 34.9 43.2555 35.2667 43.2555 35.64V45H41.1155V36.26C41.1155 35.8467 41.0555 35.5267 40.9355 35.3C40.8155 35.0733 40.5688 34.96 40.1955 34.96C39.9555 34.96 39.7021 35.0333 39.4355 35.18C39.1821 35.3133 38.9355 35.48 38.6955 35.68V45H36.5555ZM47.4245 45.16C46.9712 45.16 46.5712 45.0333 46.2245 44.78C45.8779 44.5133 45.6045 44.18 45.4045 43.78C45.2045 43.3667 45.1045 42.9333 45.1045 42.48C45.1045 41.76 45.2245 41.1533 45.4645 40.66C45.7045 40.1667 46.0312 39.7533 46.4445 39.42C46.8712 39.0733 47.3579 38.7733 47.9045 38.52C48.4645 38.2667 49.0512 38.02 49.6645 37.78V36.96C49.6645 36.4933 49.6379 36.1067 49.5845 35.8C49.5312 35.4933 49.4179 35.2667 49.2445 35.12C49.0845 34.96 48.8379 34.88 48.5045 34.88C48.2112 34.88 47.9712 34.9467 47.7845 35.08C47.6112 35.2133 47.4845 35.4067 47.4045 35.66C47.3245 35.9 47.2845 36.1867 47.2845 36.52V37.1L45.1645 37.02C45.1912 35.74 45.4845 34.8 46.0445 34.2C46.6045 33.5867 47.4712 33.28 48.6445 33.28C49.7912 33.28 50.6045 33.5933 51.0845 34.22C51.5645 34.8467 51.8045 35.7533 51.8045 36.94V42.22C51.8045 42.58 51.8112 42.9267 51.8245 43.26C51.8512 43.5933 51.8779 43.9067 51.9045 44.2C51.9445 44.48 51.9779 44.7467 52.0045 45H50.0445C50.0045 44.7867 49.9512 44.52 49.8845 44.2C49.8312 43.8667 49.7912 43.5667 49.7645 43.3C49.6312 43.7533 49.3712 44.18 48.9845 44.58C48.6112 44.9667 48.0912 45.16 47.4245 45.16ZM48.2645 43.32C48.4779 43.32 48.6779 43.26 48.8645 43.14C49.0512 43.02 49.2179 42.8867 49.3645 42.74C49.5112 42.58 49.6112 42.4533 49.6645 42.36V39.08C49.3312 39.2667 49.0179 39.4533 48.7245 39.64C48.4312 39.8267 48.1712 40.0267 47.9445 40.24C47.7312 40.44 47.5579 40.6733 47.4245 40.94C47.3045 41.1933 47.2445 41.4867 47.2445 41.82C47.2445 42.2867 47.3312 42.6533 47.5045 42.92C47.6779 43.1867 47.9312 43.32 48.2645 43.32ZM55.8202 45V30.48H53.0802V28.8H60.7402V30.48H58.0802V45H55.8202ZM65.0875 45.16C64.1808 45.16 63.4808 44.9867 62.9875 44.64C62.4942 44.28 62.1475 43.76 61.9475 43.08C61.7608 42.3867 61.6675 41.54 61.6675 40.54V37.9C61.6675 36.8733 61.7675 36.02 61.9675 35.34C62.1675 34.66 62.5142 34.1467 63.0075 33.8C63.5142 33.4533 64.2075 33.28 65.0875 33.28C66.0608 33.28 66.7742 33.48 67.2275 33.88C67.6942 34.28 68.0008 34.86 68.1475 35.62C68.2942 36.3667 68.3675 37.2667 68.3675 38.32V39.26H63.8075V41.58C63.8075 42.0467 63.8475 42.4267 63.9275 42.72C64.0208 43.0133 64.1608 43.2333 64.3475 43.38C64.5475 43.5133 64.8008 43.58 65.1075 43.58C65.4275 43.58 65.6675 43.5067 65.8275 43.36C66.0008 43.2 66.1142 42.98 66.1675 42.7C66.2342 42.4067 66.2675 42.0667 66.2675 41.68V40.98H68.3475V41.42C68.3475 42.58 68.1008 43.4933 67.6075 44.16C67.1142 44.8267 66.2742 45.16 65.0875 45.16ZM63.8075 38.1H66.2675V37.06C66.2675 36.58 66.2408 36.18 66.1875 35.86C66.1342 35.5267 66.0208 35.28 65.8475 35.12C65.6875 34.9467 65.4275 34.86 65.0675 34.86C64.7208 34.86 64.4542 34.94 64.2675 35.1C64.0942 35.26 63.9742 35.5333 63.9075 35.92C63.8408 36.2933 63.8075 36.8133 63.8075 37.48V38.1ZM73.4655 45.16C72.5188 45.16 71.7988 44.9733 71.3055 44.6C70.8255 44.2133 70.4988 43.6733 70.3255 42.98C70.1655 42.2867 70.0855 41.48 70.0855 40.56V37.9C70.0855 36.9267 70.1721 36.1 70.3455 35.42C70.5188 34.7267 70.8455 34.2 71.3255 33.84C71.8188 33.4667 72.5321 33.28 73.4655 33.28C74.3055 33.28 74.9521 33.42 75.4055 33.7C75.8721 33.9667 76.1921 34.3733 76.3655 34.92C76.5388 35.4533 76.6255 36.12 76.6255 36.92V37.6H74.6855V36.9C74.6855 36.3933 74.6521 35.9933 74.5855 35.7C74.5188 35.4067 74.3988 35.1933 74.2255 35.06C74.0521 34.9267 73.8055 34.86 73.4855 34.86C73.1388 34.86 72.8721 34.94 72.6855 35.1C72.4988 35.26 72.3721 35.5333 72.3055 35.92C72.2521 36.2933 72.2255 36.8067 72.2255 37.46V41.1C72.2255 42.0867 72.3188 42.7467 72.5055 43.08C72.6921 43.4133 73.0255 43.58 73.5055 43.58C73.8655 43.58 74.1255 43.5 74.2855 43.34C74.4588 43.1667 74.5655 42.9267 74.6055 42.62C74.6588 42.3133 74.6855 41.9667 74.6855 41.58V40.64H76.6255V41.44C76.6255 42.2133 76.5321 42.88 76.3455 43.44C76.1721 44 75.8521 44.4267 75.3855 44.72C74.9321 45.0133 74.2921 45.16 73.4655 45.16ZM78.5881 45V28.8H80.7281V34.64C81.1148 34.2667 81.5481 33.9467 82.0281 33.68C82.5081 33.4133 83.0415 33.28 83.6281 33.28C84.0815 33.28 84.4281 33.4 84.6681 33.64C84.9215 33.88 85.0948 34.18 85.1881 34.54C85.2948 34.9 85.3481 35.2667 85.3481 35.64V45H83.2081V36.26C83.2081 35.8467 83.1481 35.5267 83.0281 35.3C82.9081 35.0733 82.6615 34.96 82.2881 34.96C82.0348 34.96 81.7681 35.0333 81.4881 35.18C81.2215 35.3267 80.9681 35.5067 80.7281 35.72V45H78.5881ZM86.9344 45L91.2944 28.8H93.1544L88.7744 45H86.9344ZM94.8972 44.28V42.14L99.0172 39.14L94.8972 36.18V34.02L100.637 38.08V40.22L94.8972 44.28Z" fill="#F4FAFF" fill-opacity="0.8" shape-rendering="crispEdges"/>
</g>
<g filter="url(#filter2_d_979_1193)">
<path d="M67.7288 56.0996V55.3396L69.7888 52.1296C69.9422 51.8896 70.0822 51.6663 70.2088 51.4596C70.3422 51.2529 70.4488 51.0363 70.5288 50.8096C70.6155 50.5763 70.6588 50.3096 70.6588 50.0096C70.6588 49.6363 70.5988 49.3429 70.4788 49.1296C70.3588 48.9163 70.1488 48.8096 69.8488 48.8096C69.5955 48.8096 69.3988 48.8796 69.2588 49.0196C69.1188 49.1596 69.0222 49.3429 68.9688 49.5696C68.9155 49.7963 68.8888 50.0396 68.8888 50.2996V50.5696H67.8188V50.2896C67.8188 49.8029 67.8822 49.3863 68.0088 49.0396C68.1422 48.6863 68.3522 48.4129 68.6388 48.2196C68.9322 48.0263 69.3188 47.9296 69.7988 47.9296C70.4522 47.9296 70.9388 48.1163 71.2588 48.4896C71.5788 48.8563 71.7388 49.3663 71.7388 50.0196C71.7388 50.3663 71.6955 50.6696 71.6088 50.9296C71.5288 51.1896 71.4222 51.4329 71.2888 51.6596C71.1555 51.8863 71.0088 52.1196 70.8488 52.3596L68.9888 55.1996H71.5488V56.0996H67.7288ZM72.7242 56.0996V47.9996H73.8542V55.2896H75.9242V56.0996H72.7242ZM76.6788 56.0996L76.8288 47.9996H77.9388L79.3688 54.5696L80.8088 47.9996H81.9088L82.0588 56.0996H81.1488L81.0588 50.2196L79.6888 56.0996H79.0488L77.6888 50.2196L77.5988 56.0996H76.6788ZM83.3004 56.0996V47.9996H86.4304V48.8096H84.4304V51.5096H85.9804V52.3096H84.4304V56.0996H83.3004ZM86.5909 56.0996L88.3109 47.9996H89.4009L91.1309 56.0996H90.0609L89.6909 54.0596H88.0409L87.6509 56.0996H86.5909ZM88.1909 53.2496H89.5409L88.8609 49.5996L88.1909 53.2496Z" fill="#F4FAFF" fill-opacity="0.8" shape-rendering="crispEdges"/>
</g>
<defs>
<filter id="filter0_f_979_1193" x="23.7303" y="15.8992" width="63.6215" height="56.4008" filterUnits="userSpaceOnUse" color-interpolation-filters="sRGB">
<feFlood flood-opacity="0" result="BackgroundImageFix"/>
<feBlend mode="normal" in="SourceGraphic" in2="BackgroundImageFix" result="shape"/>
<feGaussianBlur stdDeviation="0.15" result="effect1_foregroundBlur_979_1193"/>
</filter>
<filter id="filter1_d_979_1193" x="1.29395" y="28.8008" width="103.343" height="27.1191" filterUnits="userSpaceOnUse" color-interpolation-filters="sRGB">
<feFlood flood-opacity="0" result="BackgroundImageFix"/>
<feColorMatrix in="SourceAlpha" type="matrix" values="0 0 0 0 0 0 0 0 0 0 0 0 0 0 0 0 0 0 127 0" result="hardAlpha"/>
<feOffset dy="4"/>
<feGaussianBlur stdDeviation="2"/>
<feComposite in2="hardAlpha" operator="out"/>
<feColorMatrix type="matrix" values="0 0 0 0 0 0 0 0 0 0 0 0 0 0 0 0 0 0 0.5 0"/>
<feBlend mode="normal" in2="BackgroundImageFix" result="effect1_dropShadow_979_1193"/>
<feBlend mode="normal" in="SourceGraphic" in2="effect1_dropShadow_979_1193" result="shape"/>
</filter>
<filter id="filter2_d_979_1193" x="63.729" y="47.9297" width="31.4019" height="16.1699" filterUnits="userSpaceOnUse" color-interpolation-filters="sRGB">
<feFlood flood-opacity="0" result="BackgroundImageFix"/>
<feColorMatrix in="SourceAlpha" type="matrix" values="0 0 0 0 0 0 0 0 0 0 0 0 0 0 0 0 0 0 127 0" result="hardAlpha"/>
<feOffset dy="4"/>
<feGaussianBlur stdDeviation="2"/>
<feComposite in2="hardAlpha" operator="out"/>
<feColorMatrix type="matrix" values="0 0 0 0 0 0 0 0 0 0 0 0 0 0 0 0 0 0 0.25 0"/>
<feBlend mode="normal" in2="BackgroundImageFix" result="effect1_dropShadow_979_1193"/>
<feBlend mode="normal" in="SourceGraphic" in2="effect1_dropShadow_979_1193" result="shape"/>
</filter>
<linearGradient id="paint0_linear_979_1193" x1="2.0226e-07" y1="37.7982" x2="61.8604" y2="37.7982" gradientUnits="userSpaceOnUse">
<stop stop-color="#FF003D" stop-opacity="0.5"/>
<stop offset="1" stop-color="#DBB8E1" stop-opacity="0"/>
</linearGradient>
<linearGradient id="paint1_linear_979_1193" x1="107.345" y1="35.9978" x2="45.5427" y2="37.8868" gradientUnits="userSpaceOnUse">
<stop stop-color="#AD00FF" stop-opacity="0.5"/>
<stop offset="0.343046" stop-color="#D737DA" stop-opacity="0.41"/>
<stop offset="0.63633" stop-color="#9F46DC" stop-opacity="0"/>
<stop offset="1" stop-color="#2B3EEE" stop-opacity="0.447917"/>
<stop offset="1" stop-color="#033AA5" stop-opacity="0"/>
</linearGradient>
<linearGradient id="paint2_linear_979_1193" x1="18.1942" y1="39.6" x2="92.3346" y2="41.0056" gradientUnits="userSpaceOnUse">
<stop stop-color="#DBB8E1"/>
<stop offset="1" stop-color="#0057FF" stop-opacity="0.79"/>
</linearGradient>
</defs>
</svg>
