<svg width="77" height="54" viewBox="0 0 77 54" fill="none" xmlns="http://www.w3.org/2000/svg">
<ellipse cx="22.2117" cy="27.9451" rx="22.2117" ry="21.6814" fill="url(#paint0_linear_563_10)"/>
<ellipse cx="54.7882" cy="26.4978" rx="22.2117" ry="21.6814" fill="url(#paint1_linear_563_10)"/>
<path d="M67.1287 26.4995C67.1287 41.1348 54.9743 52.999 39.9811 52.999C24.9879 52.999 12.8335 41.1348 12.8335 26.4995C12.8335 11.8642 24.9879 0 39.9811 0C54.9743 0 67.1287 11.8642 67.1287 26.4995Z" fill="url(#paint2_linear_563_10)"/>
<g filter="url(#filter0_f_563_10)">
<path d="M17.8836 12.2757L39.8077 52.2758L62.0495 12.2757H17.8836Z" stroke="#FCF7FA" stroke-opacity="0.55" stroke-width="0.7"/>
</g>
<g filter="url(#filter1_d_563_10)">
<path d="M8.74894 32.496L4.74494 29.668V28.17L8.74894 25.314V26.826L5.87894 28.912L8.74894 30.998V32.496ZM9.8276 33L12.2356 21.66H13.7616L16.1836 33H14.6856L14.1676 30.144H11.8576L11.3116 33H9.8276ZM12.0676 29.01H13.9576L13.0056 23.9L12.0676 29.01ZM19.0842 33.112C18.4029 33.112 17.8942 32.8647 17.5582 32.37C17.2222 31.866 17.0542 31.0167 17.0542 29.822V28.254C17.0542 27.638 17.1056 27.0687 17.2082 26.546C17.3109 26.014 17.5022 25.5893 17.7822 25.272C18.0716 24.9547 18.4916 24.796 19.0422 24.796C19.3129 24.796 19.5602 24.8567 19.7842 24.978C20.0082 25.0993 20.2089 25.2487 20.3862 25.426V21.66H21.8842V33H20.3862V32.482C20.2089 32.6687 20.0129 32.8227 19.7982 32.944C19.5929 33.056 19.3549 33.112 19.0842 33.112ZM19.4622 31.936C19.6022 31.936 19.7516 31.9127 19.9102 31.866C20.0689 31.81 20.2276 31.7307 20.3862 31.628V26.322C20.2556 26.2287 20.1109 26.1493 19.9522 26.084C19.7936 26.0093 19.6209 25.972 19.4342 25.972C19.0889 25.972 18.8556 26.14 18.7342 26.476C18.6129 26.8027 18.5522 27.1993 18.5522 27.666V29.948C18.5522 30.3213 18.5709 30.662 18.6082 30.97C18.6549 31.2687 18.7436 31.5067 18.8742 31.684C19.0049 31.852 19.2009 31.936 19.4622 31.936ZM23.1496 35.044C23.0283 35.044 22.8929 35.0347 22.7436 35.016C22.6036 35.0067 22.4823 34.9833 22.3796 34.946V33.868C22.4263 33.8773 22.4916 33.8867 22.5756 33.896C22.6596 33.9053 22.7249 33.91 22.7716 33.91C22.9863 33.91 23.1543 33.868 23.2756 33.784C23.3969 33.7 23.4809 33.5833 23.5276 33.434C23.5836 33.2847 23.6116 33.1167 23.6116 32.93V24.908H25.1096V33.084C25.1096 33.7187 24.9323 34.204 24.5776 34.54C24.2323 34.876 23.7563 35.044 23.1496 35.044ZM23.6116 23.704V22.136H25.1236V23.704H23.6116ZM26.6281 33V24.908H28.1261V25.706C28.3968 25.454 28.6955 25.2393 29.0221 25.062C29.3488 24.8847 29.7081 24.796 30.1001 24.796C30.4268 24.796 30.6741 24.88 30.8421 25.048C31.0195 25.216 31.1408 25.426 31.2061 25.678C31.2808 25.93 31.3181 26.1867 31.3181 26.448V33H29.8201V26.882C29.8201 26.5927 29.7781 26.3687 29.6941 26.21C29.6101 26.0513 29.4375 25.972 29.1761 25.972C29.0081 25.972 28.8308 26.0233 28.6441 26.126C28.4668 26.2193 28.2941 26.336 28.1261 26.476V33H26.6281ZM34.2365 33.112C33.9192 33.112 33.6392 33.0233 33.3965 32.846C33.1538 32.6593 32.9625 32.426 32.8225 32.146C32.6825 31.8567 32.6125 31.5533 32.6125 31.236C32.6125 30.732 32.6965 30.3073 32.8645 29.962C33.0325 29.6167 33.2612 29.3273 33.5505 29.094C33.8492 28.8513 34.1898 28.6413 34.5725 28.464C34.9645 28.2867 35.3752 28.114 35.8045 27.946V27.372C35.8045 27.0453 35.7858 26.7747 35.7485 26.56C35.7112 26.3453 35.6318 26.1867 35.5105 26.084C35.3985 25.972 35.2258 25.916 34.9925 25.916C34.7872 25.916 34.6192 25.9627 34.4885 26.056C34.3672 26.1493 34.2785 26.2847 34.2225 26.462C34.1665 26.63 34.1385 26.8307 34.1385 27.064V27.47L32.6545 27.414C32.6732 26.518 32.8785 25.86 33.2705 25.44C33.6625 25.0107 34.2692 24.796 35.0905 24.796C35.8932 24.796 36.4625 25.0153 36.7985 25.454C37.1345 25.8927 37.3025 26.5273 37.3025 27.358V31.054C37.3025 31.306 37.3072 31.5487 37.3165 31.782C37.3352 32.0153 37.3538 32.2347 37.3725 32.44C37.4005 32.636 37.4238 32.8227 37.4425 33H36.0705C36.0425 32.8507 36.0052 32.664 35.9585 32.44C35.9212 32.2067 35.8932 31.9967 35.8745 31.81C35.7812 32.1273 35.5992 32.426 35.3285 32.706C35.0672 32.9767 34.7032 33.112 34.2365 33.112ZM34.8245 31.824C34.9738 31.824 35.1138 31.782 35.2445 31.698C35.3752 31.614 35.4918 31.5207 35.5945 31.418C35.6972 31.306 35.7672 31.2173 35.8045 31.152V28.856C35.5712 28.9867 35.3518 29.1173 35.1465 29.248C34.9412 29.3787 34.7592 29.5187 34.6005 29.668C34.4512 29.808 34.3298 29.9713 34.2365 30.158C34.1525 30.3353 34.1105 30.5407 34.1105 30.774C34.1105 31.1007 34.1712 31.3573 34.2925 31.544C34.4138 31.7307 34.5912 31.824 34.8245 31.824ZM40.1134 33V22.836H38.1954V21.66H43.5574V22.836H41.6954V33H40.1134ZM46.6006 33.112C45.9659 33.112 45.4759 32.9907 45.1306 32.748C44.7852 32.496 44.5426 32.132 44.4026 31.656C44.2719 31.1707 44.2066 30.578 44.2066 29.878V28.03C44.2066 27.3113 44.2766 26.714 44.4166 26.238C44.5566 25.762 44.7992 25.4027 45.1446 25.16C45.4992 24.9173 45.9846 24.796 46.6006 24.796C47.2819 24.796 47.7812 24.936 48.0986 25.216C48.4252 25.496 48.6399 25.902 48.7426 26.434C48.8452 26.9567 48.8966 27.5867 48.8966 28.324V28.982H45.7046V30.606C45.7046 30.9327 45.7326 31.1987 45.7886 31.404C45.8539 31.6093 45.9519 31.7633 46.0826 31.866C46.2226 31.9593 46.3999 32.006 46.6146 32.006C46.8386 32.006 47.0066 31.9547 47.1186 31.852C47.2399 31.74 47.3192 31.586 47.3566 31.39C47.4032 31.1847 47.4266 30.9467 47.4266 30.676V30.186H48.8826V30.494C48.8826 31.306 48.7099 31.9453 48.3646 32.412C48.0192 32.8787 47.4312 33.112 46.6006 33.112ZM45.7046 28.17H47.4266V27.442C47.4266 27.106 47.4079 26.826 47.3706 26.602C47.3332 26.3687 47.2539 26.196 47.1326 26.084C47.0206 25.9627 46.8386 25.902 46.5866 25.902C46.3439 25.902 46.1572 25.958 46.0266 26.07C45.9052 26.182 45.8212 26.3733 45.7746 26.644C45.7279 26.9053 45.7046 27.2693 45.7046 27.736V28.17ZM52.4651 33.112C51.8025 33.112 51.2985 32.9813 50.9531 32.72C50.6171 32.4493 50.3885 32.0713 50.2671 31.586C50.1551 31.1007 50.0991 30.536 50.0991 29.892V28.03C50.0991 27.3487 50.1598 26.77 50.2811 26.294C50.4025 25.8087 50.6311 25.44 50.9671 25.188C51.3125 24.9267 51.8118 24.796 52.4651 24.796C53.0531 24.796 53.5058 24.894 53.8231 25.09C54.1498 25.2767 54.3738 25.5613 54.4951 25.944C54.6165 26.3173 54.6771 26.784 54.6771 27.344V27.82H53.3191V27.33C53.3191 26.9753 53.2958 26.6953 53.2491 26.49C53.2025 26.2847 53.1185 26.1353 52.9971 26.042C52.8758 25.9487 52.7031 25.902 52.4791 25.902C52.2365 25.902 52.0498 25.958 51.9191 26.07C51.7885 26.182 51.6998 26.3733 51.6531 26.644C51.6158 26.9053 51.5971 27.2647 51.5971 27.722V30.27C51.5971 30.9607 51.6625 31.4227 51.7931 31.656C51.9238 31.8893 52.1571 32.006 52.4931 32.006C52.7451 32.006 52.9271 31.95 53.0391 31.838C53.1605 31.7167 53.2351 31.5487 53.2631 31.334C53.3005 31.1193 53.3191 30.8767 53.3191 30.606V29.948H54.6771V30.508C54.6771 31.0493 54.6118 31.516 54.4811 31.908C54.3598 32.3 54.1358 32.5987 53.8091 32.804C53.4918 33.0093 53.0438 33.112 52.4651 33.112ZM56.051 33V21.66H57.549V25.748C57.8197 25.4867 58.123 25.2627 58.459 25.076C58.795 24.8893 59.1683 24.796 59.579 24.796C59.8963 24.796 60.139 24.88 60.307 25.048C60.4843 25.216 60.6057 25.426 60.671 25.678C60.7457 25.93 60.783 26.1867 60.783 26.448V33H59.285V26.882C59.285 26.5927 59.243 26.3687 59.159 26.21C59.075 26.0513 58.9023 25.972 58.641 25.972C58.4637 25.972 58.277 26.0233 58.081 26.126C57.8943 26.2287 57.717 26.3547 57.549 26.504V33H56.051ZM61.8934 33L64.9454 21.66H66.2474L63.1814 33H61.8934ZM67.4673 32.496V30.998L70.3513 28.898L67.4673 26.826V25.314L71.4854 28.156V29.654L67.4673 32.496Z" fill="#F4FAFF" fill-opacity="0.8" shape-rendering="crispEdges"/>
</g>
<g filter="url(#filter2_d_563_10)">
<path d="M48.7313 40.4629V39.9309L50.1733 37.6839C50.2807 37.5159 50.3787 37.3596 50.4673 37.2149C50.5607 37.0702 50.6353 36.9186 50.6913 36.7599C50.752 36.5966 50.7823 36.4099 50.7823 36.1999C50.7823 35.9386 50.7403 35.7332 50.6563 35.5839C50.5723 35.4346 50.4253 35.3599 50.2153 35.3599C50.038 35.3599 49.9003 35.4089 49.8023 35.5069C49.7043 35.6049 49.6367 35.7332 49.5993 35.8919C49.562 36.0506 49.5433 36.2209 49.5433 36.4029V36.5919H48.7943V36.3959C48.7943 36.0552 48.8387 35.7636 48.9273 35.5209C49.0207 35.2736 49.1677 35.0822 49.3683 34.9469C49.5737 34.8116 49.8443 34.7439 50.1803 34.7439C50.6377 34.7439 50.9783 34.8746 51.2023 35.1359C51.4263 35.3926 51.5383 35.7496 51.5383 36.2069C51.5383 36.4496 51.508 36.6619 51.4473 36.8439C51.3913 37.0259 51.3167 37.1962 51.2233 37.3549C51.13 37.5136 51.0273 37.6769 50.9153 37.8449L49.6133 39.8329H51.4053V40.4629H48.7313ZM52.2281 40.4629V34.7929H53.0191V39.8959H54.4681V40.4629H52.2281ZM54.9963 40.4629L55.1013 34.7929H55.8783L56.8793 39.3919L57.8873 34.7929H58.6573L58.7623 40.4629H58.1253L58.0623 36.3469L57.1033 40.4629H56.6553L55.7033 36.3469L55.6403 40.4629H54.9963ZM59.6314 40.4629V34.7929H61.8224V35.3599H60.4224V37.2499H61.5074V37.8099H60.4224V40.4629H59.6314ZM61.9348 40.4629L63.1388 34.7929H63.9018L65.1128 40.4629H64.3638L64.1048 39.0349H62.9498L62.6768 40.4629H61.9348ZM63.0548 38.4679H63.9998L63.5238 35.9129L63.0548 38.4679Z" fill="#F4FAFF" fill-opacity="0.8" shape-rendering="crispEdges"/>
</g>
<defs>
<filter id="filter0_f_563_10" x="16.9926" y="11.6258" width="45.952" height="41.6742" filterUnits="userSpaceOnUse" color-interpolation-filters="sRGB">
<feFlood flood-opacity="0" result="BackgroundImageFix"/>
<feBlend mode="normal" in="SourceGraphic" in2="BackgroundImageFix" result="shape"/>
<feGaussianBlur stdDeviation="0.15" result="effect1_foregroundBlur_563_10"/>
</filter>
<filter id="filter1_d_563_10" x="0.744949" y="21.6602" width="74.7404" height="21.3848" filterUnits="userSpaceOnUse" color-interpolation-filters="sRGB">
<feFlood flood-opacity="0" result="BackgroundImageFix"/>
<feColorMatrix in="SourceAlpha" type="matrix" values="0 0 0 0 0 0 0 0 0 0 0 0 0 0 0 0 0 0 127 0" result="hardAlpha"/>
<feOffset dy="4"/>
<feGaussianBlur stdDeviation="2"/>
<feComposite in2="hardAlpha" operator="out"/>
<feColorMatrix type="matrix" values="0 0 0 0 0 0 0 0 0 0 0 0 0 0 0 0 0 0 0.5 0"/>
<feBlend mode="normal" in2="BackgroundImageFix" result="effect1_dropShadow_563_10"/>
<feBlend mode="normal" in="SourceGraphic" in2="effect1_dropShadow_563_10" result="shape"/>
</filter>
<filter id="filter2_d_563_10" x="44.7313" y="34.7441" width="24.3814" height="13.7188" filterUnits="userSpaceOnUse" color-interpolation-filters="sRGB">
<feFlood flood-opacity="0" result="BackgroundImageFix"/>
<feColorMatrix in="SourceAlpha" type="matrix" values="0 0 0 0 0 0 0 0 0 0 0 0 0 0 0 0 0 0 127 0" result="hardAlpha"/>
<feOffset dy="4"/>
<feGaussianBlur stdDeviation="2"/>
<feComposite in2="hardAlpha" operator="out"/>
<feColorMatrix type="matrix" values="0 0 0 0 0 0 0 0 0 0 0 0 0 0 0 0 0 0 0.25 0"/>
<feBlend mode="normal" in2="BackgroundImageFix" result="effect1_dropShadow_563_10"/>
<feBlend mode="normal" in="SourceGraphic" in2="effect1_dropShadow_563_10" result="shape"/>
</filter>
<linearGradient id="paint0_linear_563_10" x1="1.45552e-07" y1="27.8243" x2="44.5163" y2="27.8243" gradientUnits="userSpaceOnUse">
<stop stop-color="#FF003D" stop-opacity="0.5"/>
<stop offset="1" stop-color="#DBB8E1" stop-opacity="0"/>
</linearGradient>
<linearGradient id="paint1_linear_563_10" x1="77.2482" y1="26.498" x2="32.7716" y2="27.8271" gradientUnits="userSpaceOnUse">
<stop stop-color="#AD00FF" stop-opacity="0.5"/>
<stop offset="0.343046" stop-color="#D737DA" stop-opacity="0.41"/>
<stop offset="0.63633" stop-color="#9F46DC" stop-opacity="0"/>
<stop offset="1" stop-color="#2B3EEE" stop-opacity="0.447917"/>
<stop offset="1" stop-color="#033AA5" stop-opacity="0"/>
</linearGradient>
<linearGradient id="paint2_linear_563_10" x1="13.093" y1="29.1495" x2="66.4472" y2="30.1384" gradientUnits="userSpaceOnUse">
<stop stop-color="#DBB8E1"/>
<stop offset="1" stop-color="#0057FF" stop-opacity="0.79"/>
</linearGradient>
</defs>
</svg>
