<svg width="47" height="31" viewBox="0 0 47 31" fill="none" xmlns="http://www.w3.org/2000/svg">
<ellipse cx="14.3462" cy="15.1841" rx="12.3462" ry="11.7818" fill="url(#paint0_linear_552_296)"/>
<ellipse cx="32.4537" cy="14.399" rx="12.3462" ry="11.7818" fill="url(#paint1_linear_552_296)"/>
<path d="M39.313 14.4C39.313 22.3529 32.557 28.7999 24.2232 28.7999C15.8893 28.7999 9.1333 22.3529 9.1333 14.4C9.1333 6.44709 15.8893 0 24.2232 0C32.557 0 39.313 6.44709 39.313 14.4Z" fill="url(#paint2_linear_552_296)"/>
<g filter="url(#filter0_f_552_296)">
<path d="M11.9537 6.68078L24.1272 28.394L36.4771 6.68078H11.9537Z" stroke="#FCF7FA" stroke-opacity="0.55" stroke-width="0.4"/>
</g>
<g filter="url(#filter1_d_552_296)">
<path d="M6.4055 17.712L4.1175 16.096V15.24L6.4055 13.608V14.472L4.7655 15.664L6.4055 16.856V17.712ZM7.02187 18L8.39788 11.52H9.26988L10.6539 18H9.79788L9.50188 16.368H8.18187L7.86987 18H7.02187ZM8.30187 15.72H9.38188L8.83788 12.8L8.30187 15.72ZM12.3114 18.064C11.922 18.064 11.6314 17.9227 11.4394 17.64C11.2474 17.352 11.1514 16.8667 11.1514 16.184V15.288C11.1514 14.936 11.1807 14.6107 11.2394 14.312C11.298 14.008 11.4074 13.7653 11.5674 13.584C11.7327 13.4027 11.9727 13.312 12.2874 13.312C12.442 13.312 12.5834 13.3467 12.7114 13.416C12.8394 13.4853 12.954 13.5707 13.0554 13.672V11.52H13.9114V18H13.0554V17.704C12.954 17.8107 12.842 17.8987 12.7194 17.968C12.602 18.032 12.466 18.064 12.3114 18.064ZM12.5274 17.392C12.6074 17.392 12.6927 17.3787 12.7834 17.352C12.874 17.32 12.9647 17.2747 13.0554 17.216V14.184C12.9807 14.1307 12.898 14.0853 12.8074 14.048C12.7167 14.0053 12.618 13.984 12.5114 13.984C12.314 13.984 12.1807 14.08 12.1114 14.272C12.042 14.4587 12.0074 14.6853 12.0074 14.952V16.256C12.0074 16.4693 12.018 16.664 12.0394 16.84C12.066 17.0107 12.1167 17.1467 12.1914 17.248C12.266 17.344 12.378 17.392 12.5274 17.392ZM14.6344 19.168C14.5651 19.168 14.4878 19.1627 14.4024 19.152C14.3224 19.1467 14.2531 19.1333 14.1944 19.112V18.496C14.2211 18.5013 14.2584 18.5067 14.3064 18.512C14.3544 18.5173 14.3918 18.52 14.4184 18.52C14.5411 18.52 14.6371 18.496 14.7064 18.448C14.7758 18.4 14.8238 18.3333 14.8504 18.248C14.8824 18.1627 14.8984 18.0667 14.8984 17.96V13.376H15.7544V18.048C15.7544 18.4107 15.6531 18.688 15.4504 18.88C15.2531 19.072 14.9811 19.168 14.6344 19.168ZM14.8984 12.688V11.792H15.7624V12.688H14.8984ZM16.6222 18V13.376H17.4782V13.832C17.6329 13.688 17.8035 13.5653 17.9902 13.464C18.1769 13.3627 18.3822 13.312 18.6062 13.312C18.7929 13.312 18.9342 13.36 19.0302 13.456C19.1315 13.552 19.2009 13.672 19.2382 13.816C19.2809 13.96 19.3022 14.1067 19.3022 14.256V18H18.4462V14.504C18.4462 14.3387 18.4222 14.2107 18.3742 14.12C18.3262 14.0293 18.2275 13.984 18.0782 13.984C17.9822 13.984 17.8809 14.0133 17.7742 14.072C17.6729 14.1253 17.5742 14.192 17.4782 14.272V18H16.6222ZM20.9698 18.064C20.7885 18.064 20.6285 18.0133 20.4898 17.912C20.3511 17.8053 20.2418 17.672 20.1618 17.512C20.0818 17.3467 20.0418 17.1733 20.0418 16.992C20.0418 16.704 20.0898 16.4613 20.1858 16.264C20.2818 16.0667 20.4125 15.9013 20.5778 15.768C20.7485 15.6293 20.9431 15.5093 21.1618 15.408C21.3858 15.3067 21.6205 15.208 21.8658 15.112V14.784C21.8658 14.5973 21.8551 14.4427 21.8338 14.32C21.8125 14.1973 21.7671 14.1067 21.6978 14.048C21.6338 13.984 21.5351 13.952 21.4018 13.952C21.2845 13.952 21.1885 13.9787 21.1138 14.032C21.0445 14.0853 20.9938 14.1627 20.9618 14.264C20.9298 14.36 20.9138 14.4747 20.9138 14.608V14.84L20.0658 14.808C20.0765 14.296 20.1938 13.92 20.4178 13.68C20.6418 13.4347 20.9885 13.312 21.4578 13.312C21.9165 13.312 22.2418 13.4373 22.4338 13.688C22.6258 13.9387 22.7218 14.3013 22.7218 14.776V16.888C22.7218 17.032 22.7245 17.1707 22.7298 17.304C22.7405 17.4373 22.7511 17.5627 22.7618 17.68C22.7778 17.792 22.7911 17.8987 22.8018 18H22.0178C22.0018 17.9147 21.9805 17.808 21.9538 17.68C21.9325 17.5467 21.9165 17.4267 21.9058 17.32C21.8525 17.5013 21.7485 17.672 21.5938 17.832C21.4445 17.9867 21.2365 18.064 20.9698 18.064ZM21.3058 17.328C21.3911 17.328 21.4711 17.304 21.5458 17.256C21.6205 17.208 21.6871 17.1547 21.7458 17.096C21.8045 17.032 21.8445 16.9813 21.8658 16.944V15.632C21.7325 15.7067 21.6071 15.7813 21.4898 15.856C21.3725 15.9307 21.2685 16.0107 21.1778 16.096C21.0925 16.176 21.0231 16.2693 20.9698 16.376C20.9218 16.4773 20.8978 16.5947 20.8978 16.728C20.8978 16.9147 20.9325 17.0613 21.0018 17.168C21.0711 17.2747 21.1725 17.328 21.3058 17.328ZM24.3281 18V12.192H23.2321V11.52H26.2961V12.192H25.2321V18H24.3281ZM28.035 18.064C27.6723 18.064 27.3923 17.9947 27.195 17.856C26.9977 17.712 26.859 17.504 26.779 17.232C26.7043 16.9547 26.667 16.616 26.667 16.216V15.16C26.667 14.7493 26.707 14.408 26.787 14.136C26.867 13.864 27.0057 13.6587 27.203 13.52C27.4057 13.3813 27.683 13.312 28.035 13.312C28.4243 13.312 28.7097 13.392 28.891 13.552C29.0777 13.712 29.2003 13.944 29.259 14.248C29.3177 14.5467 29.347 14.9067 29.347 15.328V15.704H27.523V16.632C27.523 16.8187 27.539 16.9707 27.571 17.088C27.6083 17.2053 27.6643 17.2933 27.739 17.352C27.819 17.4053 27.9203 17.432 28.043 17.432C28.171 17.432 28.267 17.4027 28.331 17.344C28.4003 17.28 28.4457 17.192 28.467 17.08C28.4937 16.9627 28.507 16.8267 28.507 16.672V16.392H29.339V16.568C29.339 17.032 29.2403 17.3973 29.043 17.664C28.8457 17.9307 28.5097 18.064 28.035 18.064ZM27.523 15.24H28.507V14.824C28.507 14.632 28.4963 14.472 28.475 14.344C28.4537 14.2107 28.4083 14.112 28.339 14.048C28.275 13.9787 28.171 13.944 28.027 13.944C27.8883 13.944 27.7817 13.976 27.707 14.04C27.6377 14.104 27.5897 14.2133 27.563 14.368C27.5363 14.5173 27.523 14.7253 27.523 14.992V15.24ZM31.3862 18.064C31.0075 18.064 30.7195 17.9893 30.5222 17.84C30.3302 17.6853 30.1995 17.4693 30.1302 17.192C30.0662 16.9147 30.0342 16.592 30.0342 16.224V15.16C30.0342 14.7707 30.0689 14.44 30.1382 14.168C30.2075 13.8907 30.3382 13.68 30.5302 13.536C30.7275 13.3867 31.0129 13.312 31.3862 13.312C31.7222 13.312 31.9809 13.368 32.1622 13.48C32.3489 13.5867 32.4769 13.7493 32.5462 13.968C32.6155 14.1813 32.6502 14.448 32.6502 14.768V15.04H31.8742V14.76C31.8742 14.5573 31.8609 14.3973 31.8342 14.28C31.8075 14.1627 31.7595 14.0773 31.6902 14.024C31.6209 13.9707 31.5222 13.944 31.3942 13.944C31.2555 13.944 31.1489 13.976 31.0742 14.04C30.9995 14.104 30.9489 14.2133 30.9222 14.368C30.9009 14.5173 30.8902 14.7227 30.8902 14.984V16.44C30.8902 16.8347 30.9275 17.0987 31.0022 17.232C31.0769 17.3653 31.2102 17.432 31.4022 17.432C31.5462 17.432 31.6502 17.4 31.7142 17.336C31.7835 17.2667 31.8262 17.1707 31.8422 17.048C31.8635 16.9253 31.8742 16.7867 31.8742 16.632V16.256H32.6502V16.576C32.6502 16.8853 32.6129 17.152 32.5382 17.376C32.4689 17.6 32.3409 17.7707 32.1542 17.888C31.9729 18.0053 31.7169 18.064 31.3862 18.064ZM33.4352 18V11.52H34.2912V13.856C34.4459 13.7067 34.6193 13.5787 34.8113 13.472C35.0033 13.3653 35.2166 13.312 35.4513 13.312C35.6326 13.312 35.7713 13.36 35.8673 13.456C35.9686 13.552 36.0379 13.672 36.0753 13.816C36.1179 13.96 36.1393 14.1067 36.1393 14.256V18H35.2833V14.504C35.2833 14.3387 35.2593 14.2107 35.2113 14.12C35.1633 14.0293 35.0646 13.984 34.9153 13.984C34.8139 13.984 34.7072 14.0133 34.5953 14.072C34.4886 14.1307 34.3873 14.2027 34.2912 14.288V18H33.4352ZM36.7737 18L38.5177 11.52H39.2617L37.5097 18H36.7737ZM39.9589 17.712V16.856L41.6069 15.656L39.9589 14.472V13.608L42.2549 15.232V16.088L39.9589 17.712Z" fill="#F4FAFF" fill-opacity="0.8" shape-rendering="crispEdges"/>
</g>
<g filter="url(#filter2_d_552_296)">
<path d="M29.0917 22.6406V22.3366L29.9157 21.0526C29.9771 20.9566 30.0331 20.8673 30.0837 20.7846C30.1371 20.702 30.1797 20.6153 30.2117 20.5246C30.2464 20.4313 30.2637 20.3246 30.2637 20.2046C30.2637 20.0553 30.2397 19.938 30.1917 19.8526C30.1437 19.7673 30.0597 19.7246 29.9397 19.7246C29.8384 19.7246 29.7597 19.7526 29.7037 19.8086C29.6477 19.8646 29.6091 19.938 29.5877 20.0286C29.5664 20.1193 29.5557 20.2166 29.5557 20.3206V20.4286H29.1277V20.3166C29.1277 20.122 29.1531 19.9553 29.2037 19.8166C29.2571 19.6753 29.3411 19.566 29.4557 19.4886C29.5731 19.4113 29.7277 19.3726 29.9197 19.3726C30.1811 19.3726 30.3757 19.4473 30.5037 19.5966C30.6317 19.7433 30.6957 19.9473 30.6957 20.2086C30.6957 20.3473 30.6784 20.4686 30.6437 20.5726C30.6117 20.6766 30.5691 20.774 30.5157 20.8646C30.4624 20.9553 30.4037 21.0486 30.3397 21.1446L29.5957 22.2806H30.6197V22.6406H29.0917ZM31.0899 22.6406V19.4006H31.5419V22.3166H32.3699V22.6406H31.0899ZM32.6717 22.6406L32.7317 19.4006H33.1757L33.7477 22.0286L34.3237 19.4006H34.7637L34.8237 22.6406H34.4597L34.4237 20.2886L33.8757 22.6406H33.6197L33.0757 20.2886L33.0397 22.6406H32.6717ZM35.3204 22.6406V19.4006H36.5724V19.7246H35.7724V20.8046H36.3924V21.1246H35.7724V22.6406H35.3204ZM36.6365 22.6406L37.3245 19.4006H37.7605L38.4525 22.6406H38.0245L37.8765 21.8246H37.2165L37.0605 22.6406H36.6365ZM37.2765 21.5006H37.8165L37.5445 20.0406L37.2765 21.5006Z" fill="#F4FAFF" fill-opacity="0.8" shape-rendering="crispEdges"/>
</g>
<defs>
<filter id="filter0_f_552_296" x="11.3123" y="6.18047" width="25.8087" height="22.9203" filterUnits="userSpaceOnUse" color-interpolation-filters="sRGB">
<feFlood flood-opacity="0" result="BackgroundImageFix"/>
<feBlend in="SourceGraphic" in2="BackgroundImageFix" result="shape"/>
<feGaussianBlur stdDeviation="0.15" result="effect1_foregroundBlur_552_296"/>
</filter>
<filter id="filter1_d_552_296" x="0.117432" y="11.5195" width="46.1375" height="15.6484" filterUnits="userSpaceOnUse" color-interpolation-filters="sRGB">
<feFlood flood-opacity="0" result="BackgroundImageFix"/>
<feColorMatrix in="SourceAlpha" values="0 0 0 0 0 0 0 0 0 0 0 0 0 0 0 0 0 0 127 0" result="hardAlpha"/>
<feOffset dy="4"/>
<feGaussianBlur stdDeviation="2"/>
<feComposite in2="hardAlpha" operator="out"/>
<feColorMatrix values="0 0 0 0 0 0 0 0 0 0 0 0 0 0 0 0 0 0 0.5 0"/>
<feBlend in2="BackgroundImageFix" result="effect1_dropShadow_552_296"/>
<feBlend in="SourceGraphic" in2="effect1_dropShadow_552_296" result="shape"/>
</filter>
<filter id="filter2_d_552_296" x="25.0918" y="19.373" width="17.3608" height="11.2676" filterUnits="userSpaceOnUse" color-interpolation-filters="sRGB">
<feFlood flood-opacity="0" result="BackgroundImageFix"/>
<feColorMatrix in="SourceAlpha" values="0 0 0 0 0 0 0 0 0 0 0 0 0 0 0 0 0 0 127 0" result="hardAlpha"/>
<feOffset dy="4"/>
<feGaussianBlur stdDeviation="2"/>
<feComposite in2="hardAlpha" operator="out"/>
<feColorMatrix values="0 0 0 0 0 0 0 0 0 0 0 0 0 0 0 0 0 0 0.25 0"/>
<feBlend in2="BackgroundImageFix" result="effect1_dropShadow_552_296"/>
<feBlend in="SourceGraphic" in2="effect1_dropShadow_552_296" result="shape"/>
</filter>
<linearGradient id="paint0_linear_552_296" x1="2" y1="15.1185" x2="26.7441" y2="15.1185" gradientUnits="userSpaceOnUse">
<stop stop-color="#FF003D" stop-opacity="0.5"/>
<stop offset="1" stop-color="#DBB8E1" stop-opacity="0"/>
</linearGradient>
<linearGradient id="paint1_linear_552_296" x1="44.9379" y1="14.3991" x2="20.2169" y2="15.1547" gradientUnits="userSpaceOnUse">
<stop stop-color="#AD00FF" stop-opacity="0.5"/>
<stop offset="0.343046" stop-color="#D737DA" stop-opacity="0.41"/>
<stop offset="0.63633" stop-color="#9F46DC" stop-opacity="0"/>
<stop offset="1" stop-color="#2B3EEE" stop-opacity="0.447917"/>
<stop offset="1" stop-color="#033AA5" stop-opacity="0"/>
</linearGradient>
<linearGradient id="paint2_linear_552_296" x1="9.27758" y1="15.84" x2="38.9337" y2="16.4022" gradientUnits="userSpaceOnUse">
<stop stop-color="#DBB8E1"/>
<stop offset="1" stop-color="#0057FF" stop-opacity="0.79"/>
</linearGradient>
</defs>
</svg>
