<svg width="89" height="70" viewBox="0 0 89 70" fill="none" xmlns="http://www.w3.org/2000/svg">
<circle cx="25" cy="36" r="24.5" fill="#FBFCFF" stroke="black"/>
<circle cx="64" cy="35" r="24.5" fill="#FDFDFE" stroke="black"/>
<circle cx="46" cy="35" r="34.5" fill="#FBFDFF" stroke="black"/>
<path d="M77.014 21.685L45.4308 68.2887L14.0658 21.5378L77.014 21.685Z" fill="#FBFDFF" stroke="black"/>
<path d="M12.04 41.424L7.464 38.192V36.48L12.04 33.216V34.944L8.76 37.328L12.04 39.712V41.424ZM13.2728 42L16.0248 29.04H17.7688L20.5368 42H18.8248L18.2328 38.736H15.5928L14.9688 42H13.2728ZM15.8328 37.44H17.9928L16.9048 31.6L15.8328 37.44ZM23.8518 42.128C23.0731 42.128 22.4918 41.8453 22.1078 41.28C21.7238 40.704 21.5318 39.7333 21.5318 38.368V36.576C21.5318 35.872 21.5904 35.2213 21.7078 34.624C21.8251 34.016 22.0438 33.5307 22.3638 33.168C22.6944 32.8053 23.1744 32.624 23.8038 32.624C24.1131 32.624 24.3958 32.6933 24.6518 32.832C24.9078 32.9707 25.1371 33.1413 25.3398 33.344V29.04H27.0518V42H25.3398V41.408C25.1371 41.6213 24.9131 41.7973 24.6678 41.936C24.4331 42.064 24.1611 42.128 23.8518 42.128ZM24.2838 40.784C24.4438 40.784 24.6144 40.7573 24.7958 40.704C24.9771 40.64 25.1584 40.5493 25.3398 40.432V34.368C25.1904 34.2613 25.0251 34.1707 24.8438 34.096C24.6624 34.0107 24.4651 33.968 24.2518 33.968C23.8571 33.968 23.5904 34.16 23.4518 34.544C23.3131 34.9173 23.2438 35.3707 23.2438 35.904V38.512C23.2438 38.9387 23.2651 39.328 23.3078 39.68C23.3611 40.0213 23.4624 40.2933 23.6118 40.496C23.7611 40.688 23.9851 40.784 24.2838 40.784ZM28.4979 44.336C28.3592 44.336 28.2045 44.3253 28.0339 44.304C27.8739 44.2933 27.7352 44.2667 27.6179 44.224V42.992C27.6712 43.0027 27.7459 43.0133 27.8419 43.024C27.9379 43.0347 28.0125 43.04 28.0659 43.04C28.3112 43.04 28.5032 42.992 28.6419 42.896C28.7805 42.8 28.8765 42.6667 28.9299 42.496C28.9939 42.3253 29.0259 42.1333 29.0259 41.92V32.752H30.7379V42.096C30.7379 42.8213 30.5352 43.376 30.1299 43.76C29.7352 44.144 29.1912 44.336 28.4979 44.336ZM29.0259 31.376V29.584H30.7539V31.376H29.0259ZM32.4734 42V32.752H34.1854V33.664C34.4947 33.376 34.836 33.1307 35.2094 32.928C35.5827 32.7253 35.9934 32.624 36.4414 32.624C36.8147 32.624 37.0974 32.72 37.2894 32.912C37.492 33.104 37.6307 33.344 37.7054 33.632C37.7907 33.92 37.8334 34.2133 37.8334 34.512V42H36.1214V35.008C36.1214 34.6773 36.0734 34.4213 35.9774 34.24C35.8814 34.0587 35.684 33.968 35.3854 33.968C35.1934 33.968 34.9907 34.0267 34.7774 34.144C34.5747 34.2507 34.3774 34.384 34.1854 34.544V42H32.4734ZM41.1686 42.128C40.806 42.128 40.486 42.0267 40.2086 41.824C39.9313 41.6107 39.7126 41.344 39.5526 41.024C39.3926 40.6933 39.3126 40.3467 39.3126 39.984C39.3126 39.408 39.4086 38.9227 39.6006 38.528C39.7926 38.1333 40.054 37.8027 40.3846 37.536C40.726 37.2587 41.1153 37.0187 41.5526 36.816C42.0006 36.6133 42.47 36.416 42.9606 36.224V35.568C42.9606 35.1947 42.9393 34.8853 42.8966 34.64C42.854 34.3947 42.7633 34.2133 42.6246 34.096C42.4966 33.968 42.2993 33.904 42.0326 33.904C41.798 33.904 41.606 33.9573 41.4566 34.064C41.318 34.1707 41.2166 34.3253 41.1526 34.528C41.0886 34.72 41.0566 34.9493 41.0566 35.216V35.68L39.3606 35.616C39.382 34.592 39.6166 33.84 40.0646 33.36C40.5126 32.8693 41.206 32.624 42.1446 32.624C43.062 32.624 43.7126 32.8747 44.0966 33.376C44.4806 33.8773 44.6726 34.6027 44.6726 35.552V39.776C44.6726 40.064 44.678 40.3413 44.6886 40.608C44.71 40.8747 44.7313 41.1253 44.7526 41.36C44.7846 41.584 44.8113 41.7973 44.8326 42H43.2646C43.2326 41.8293 43.19 41.616 43.1366 41.36C43.094 41.0933 43.062 40.8533 43.0406 40.64C42.934 41.0027 42.726 41.344 42.4166 41.664C42.118 41.9733 41.702 42.128 41.1686 42.128ZM41.8406 40.656C42.0113 40.656 42.1713 40.608 42.3206 40.512C42.47 40.416 42.6033 40.3093 42.7206 40.192C42.838 40.064 42.918 39.9627 42.9606 39.888V37.264C42.694 37.4133 42.4433 37.5627 42.2086 37.712C41.974 37.8613 41.766 38.0213 41.5846 38.192C41.414 38.352 41.2753 38.5387 41.1686 38.752C41.0726 38.9547 41.0246 39.1893 41.0246 39.456C41.0246 39.8293 41.094 40.1227 41.2326 40.336C41.3713 40.5493 41.574 40.656 41.8406 40.656ZM47.8851 42V30.384H45.6931V29.04H51.8211V30.384H49.6931V42H47.8851ZM55.299 42.128C54.5737 42.128 54.0137 41.9893 53.619 41.712C53.2243 41.424 52.947 41.008 52.787 40.464C52.6377 39.9093 52.563 39.232 52.563 38.432V36.32C52.563 35.4987 52.643 34.816 52.803 34.272C52.963 33.728 53.2403 33.3173 53.635 33.04C54.0403 32.7627 54.595 32.624 55.299 32.624C56.0777 32.624 56.6483 32.784 57.011 33.104C57.3843 33.424 57.6297 33.888 57.747 34.496C57.8643 35.0933 57.923 35.8133 57.923 36.656V37.408H54.275V39.264C54.275 39.6373 54.307 39.9413 54.371 40.176C54.4457 40.4107 54.5577 40.5867 54.707 40.704C54.867 40.8107 55.0697 40.864 55.315 40.864C55.571 40.864 55.763 40.8053 55.891 40.688C56.0297 40.56 56.1203 40.384 56.163 40.16C56.2163 39.9253 56.243 39.6533 56.243 39.344V38.784H57.907V39.136C57.907 40.064 57.7097 40.7947 57.315 41.328C56.9203 41.8613 56.2483 42.128 55.299 42.128ZM54.275 36.48H56.243V35.648C56.243 35.264 56.2217 34.944 56.179 34.688C56.1363 34.4213 56.0457 34.224 55.907 34.096C55.779 33.9573 55.571 33.888 55.283 33.888C55.0057 33.888 54.7923 33.952 54.643 34.08C54.5043 34.208 54.4083 34.4267 54.355 34.736C54.3017 35.0347 54.275 35.4507 54.275 35.984V36.48ZM62.0014 42.128C61.244 42.128 60.668 41.9787 60.2734 41.68C59.8894 41.3707 59.628 40.9387 59.4894 40.384C59.3614 39.8293 59.2974 39.184 59.2974 38.448V36.32C59.2974 35.5413 59.3667 34.88 59.5054 34.336C59.644 33.7813 59.9054 33.36 60.2894 33.072C60.684 32.7733 61.2547 32.624 62.0014 32.624C62.6734 32.624 63.1907 32.736 63.5534 32.96C63.9267 33.1733 64.1827 33.4987 64.3214 33.936C64.46 34.3627 64.5294 34.896 64.5294 35.536V36.08H62.9774V35.52C62.9774 35.1147 62.9507 34.7947 62.8974 34.56C62.844 34.3253 62.748 34.1547 62.6094 34.048C62.4707 33.9413 62.2734 33.888 62.0174 33.888C61.74 33.888 61.5267 33.952 61.3774 34.08C61.228 34.208 61.1267 34.4267 61.0734 34.736C61.0307 35.0347 61.0094 35.4453 61.0094 35.968V38.88C61.0094 39.6693 61.084 40.1973 61.2334 40.464C61.3827 40.7307 61.6494 40.864 62.0334 40.864C62.3214 40.864 62.5294 40.8 62.6574 40.672C62.796 40.5333 62.8814 40.3413 62.9134 40.096C62.956 39.8507 62.9774 39.5733 62.9774 39.264V38.512H64.5294V39.152C64.5294 39.7707 64.4547 40.304 64.3054 40.752C64.1667 41.2 63.9107 41.5413 63.5374 41.776C63.1747 42.0107 62.6627 42.128 62.0014 42.128ZM66.0995 42V29.04H67.8115V33.712C68.1208 33.4133 68.4675 33.1573 68.8515 32.944C69.2355 32.7307 69.6622 32.624 70.1315 32.624C70.4942 32.624 70.7715 32.72 70.9635 32.912C71.1662 33.104 71.3048 33.344 71.3795 33.632C71.4648 33.92 71.5075 34.2133 71.5075 34.512V42H69.7955V35.008C69.7955 34.6773 69.7475 34.4213 69.6515 34.24C69.5555 34.0587 69.3582 33.968 69.0595 33.968C68.8568 33.968 68.6435 34.0267 68.4195 34.144C68.2062 34.2613 68.0035 34.4053 67.8115 34.576V42H66.0995ZM72.7765 42L76.2645 29.04H77.7525L74.2485 42H72.7765ZM79.1468 41.424V39.712L82.4427 37.312L79.1468 34.944V33.216L83.7388 36.464V38.176L79.1468 41.424Z" fill="black"/>
<path d="M46.492 62V61.088L48.964 57.236C49.148 56.948 49.316 56.68 49.468 56.432C49.628 56.184 49.756 55.924 49.852 55.652C49.956 55.372 50.008 55.052 50.008 54.692C50.008 54.244 49.936 53.892 49.792 53.636C49.648 53.38 49.396 53.252 49.036 53.252C48.732 53.252 48.496 53.336 48.328 53.504C48.16 53.672 48.044 53.892 47.98 54.164C47.916 54.436 47.884 54.728 47.884 55.04V55.364H46.6V55.028C46.6 54.444 46.676 53.944 46.828 53.528C46.988 53.104 47.24 52.776 47.584 52.544C47.936 52.312 48.4 52.196 48.976 52.196C49.76 52.196 50.344 52.42 50.728 52.868C51.112 53.308 51.304 53.92 51.304 54.704C51.304 55.12 51.252 55.484 51.148 55.796C51.052 56.108 50.924 56.4 50.764 56.672C50.604 56.944 50.428 57.224 50.236 57.512L48.004 60.92H51.076V62H46.492ZM52.4865 62V52.28H53.8425V61.028H56.3265V62H52.4865ZM57.232 62L57.412 52.28H58.744L60.46 60.164L62.188 52.28H63.508L63.688 62H62.596L62.488 54.944L60.844 62H60.076L58.444 54.944L58.336 62H57.232ZM65.1779 62V52.28H68.9339V53.252H66.5339V56.492H68.3939V57.452H66.5339V62H65.1779ZM69.1264 62L71.1904 52.28H72.4984L74.5744 62H73.2904L72.8464 59.552H70.8664L70.3984 62H69.1264ZM71.0464 58.58H72.6664L71.8504 54.2L71.0464 58.58Z" fill="black"/>
</svg>
