<svg width="280" height="200" viewBox="0 0 280 200" fill="none" xmlns="http://www.w3.org/2000/svg">
<circle cx="210" cy="103" r="69.5" fill="white" stroke="black"/>
<circle cx="70" cy="103" r="69.5" fill="#FEFEFE" stroke="black"/>
<circle cx="140" cy="100" r="99.5" fill="white" stroke="black"/>
<path d="M227.064 53.3079L140.3 194.658L55.124 52.3458L227.064 53.3079Z" fill="white" stroke="black"/>
<path d="M40.12 108.272L26.392 98.576V93.44L40.12 83.648V88.832L30.28 95.984L40.12 103.136V108.272ZM43.8183 110L52.0743 71.12H57.3063L65.6103 110H60.4743L58.6983 100.208H50.7783L48.9062 110H43.8183ZM51.4983 96.32H57.9783L54.7143 78.8L51.4983 96.32ZM75.5553 110.384C73.2193 110.384 71.4753 109.536 70.3233 107.84C69.1713 106.112 68.5953 103.2 68.5953 99.104V93.728C68.5953 91.616 68.7713 89.664 69.1233 87.872C69.4753 86.048 70.1313 84.592 71.0913 83.504C72.0833 82.416 73.5233 81.872 75.4113 81.872C76.3393 81.872 77.1873 82.08 77.9553 82.496C78.7233 82.912 79.4113 83.424 80.0193 84.032V71.12H85.1553V110H80.0193V108.224C79.4113 108.864 78.7393 109.392 78.0033 109.808C77.2993 110.192 76.4833 110.384 75.5553 110.384ZM76.8513 106.352C77.3313 106.352 77.8433 106.272 78.3873 106.112C78.9313 105.92 79.4753 105.648 80.0193 105.296V87.104C79.5713 86.784 79.0753 86.512 78.5312 86.288C77.9873 86.032 77.3953 85.904 76.7553 85.904C75.5713 85.904 74.7713 86.48 74.3553 87.632C73.9393 88.752 73.7313 90.112 73.7313 91.712V99.536C73.7313 100.816 73.7953 101.984 73.9233 103.04C74.0833 104.064 74.3873 104.88 74.8353 105.488C75.2833 106.064 75.9553 106.352 76.8513 106.352ZM89.4936 117.008C89.0776 117.008 88.6136 116.976 88.1016 116.912C87.6216 116.88 87.2056 116.8 86.8536 116.672V112.976C87.0136 113.008 87.2376 113.04 87.5256 113.072C87.8136 113.104 88.0376 113.12 88.1976 113.12C88.9336 113.12 89.5096 112.976 89.9256 112.688C90.3416 112.4 90.6296 112 90.7896 111.488C90.9816 110.976 91.0776 110.4 91.0776 109.76V82.256H96.2136V110.288C96.2136 112.464 95.6056 114.128 94.3896 115.28C93.2056 116.432 91.5736 117.008 89.4936 117.008ZM91.0776 78.128V72.752H96.2616V78.128H91.0776ZM101.42 110V82.256H106.556V84.992C107.484 84.128 108.508 83.392 109.628 82.784C110.748 82.176 111.98 81.872 113.324 81.872C114.444 81.872 115.292 82.16 115.868 82.736C116.476 83.312 116.892 84.032 117.116 84.896C117.372 85.76 117.5 86.64 117.5 87.536V110H112.364V89.024C112.364 88.032 112.22 87.264 111.932 86.72C111.644 86.176 111.052 85.904 110.156 85.904C109.58 85.904 108.972 86.08 108.332 86.432C107.724 86.752 107.132 87.152 106.556 87.632V110H101.42ZM127.506 110.384C126.418 110.384 125.458 110.08 124.626 109.472C123.794 108.832 123.138 108.032 122.658 107.072C122.178 106.08 121.938 105.04 121.938 103.952C121.938 102.224 122.226 100.768 122.802 99.584C123.378 98.4 124.162 97.408 125.154 96.608C126.178 95.776 127.346 95.056 128.658 94.448C130.002 93.84 131.41 93.248 132.882 92.672V90.704C132.882 89.584 132.818 88.656 132.69 87.92C132.562 87.184 132.29 86.64 131.874 86.288C131.49 85.904 130.898 85.712 130.098 85.712C129.394 85.712 128.818 85.872 128.37 86.192C127.954 86.512 127.65 86.976 127.458 87.584C127.266 88.16 127.17 88.848 127.17 89.648V91.04L122.082 90.848C122.146 87.776 122.85 85.52 124.194 84.08C125.538 82.608 127.618 81.872 130.434 81.872C133.186 81.872 135.138 82.624 136.29 84.128C137.442 85.632 138.018 87.808 138.018 90.656V103.328C138.018 104.192 138.034 105.024 138.066 105.824C138.13 106.624 138.194 107.376 138.258 108.08C138.354 108.752 138.434 109.392 138.498 110H133.794C133.698 109.488 133.57 108.848 133.41 108.08C133.282 107.28 133.186 106.56 133.122 105.92C132.802 107.008 132.178 108.032 131.25 108.992C130.354 109.92 129.106 110.384 127.506 110.384ZM129.522 105.968C130.034 105.968 130.514 105.824 130.962 105.536C131.41 105.248 131.81 104.928 132.162 104.576C132.514 104.192 132.754 103.888 132.882 103.664V95.792C132.082 96.24 131.33 96.688 130.626 97.136C129.922 97.584 129.298 98.064 128.754 98.576C128.242 99.056 127.826 99.616 127.506 100.256C127.218 100.864 127.074 101.568 127.074 102.368C127.074 103.488 127.282 104.368 127.698 105.008C128.114 105.648 128.722 105.968 129.522 105.968ZM147.655 110V75.152H141.079V71.12H159.463V75.152H153.079V110H147.655ZM169.897 110.384C167.721 110.384 166.041 109.968 164.857 109.136C163.673 108.272 162.841 107.024 162.361 105.392C161.913 103.728 161.689 101.696 161.689 99.296V92.96C161.689 90.496 161.929 88.448 162.409 86.816C162.889 85.184 163.721 83.952 164.905 83.12C166.121 82.288 167.785 81.872 169.897 81.872C172.233 81.872 173.945 82.352 175.033 83.312C176.153 84.272 176.889 85.664 177.241 87.488C177.593 89.28 177.769 91.44 177.769 93.968V96.224H166.825V101.792C166.825 102.912 166.921 103.824 167.113 104.528C167.337 105.232 167.673 105.76 168.121 106.112C168.601 106.432 169.209 106.592 169.945 106.592C170.713 106.592 171.289 106.416 171.673 106.064C172.089 105.68 172.361 105.152 172.489 104.48C172.649 103.776 172.729 102.96 172.729 102.032V100.352H177.721V101.408C177.721 104.192 177.129 106.384 175.945 107.984C174.761 109.584 172.745 110.384 169.897 110.384ZM166.825 93.44H172.729V90.944C172.729 89.792 172.665 88.832 172.537 88.064C172.409 87.264 172.137 86.672 171.721 86.288C171.337 85.872 170.713 85.664 169.849 85.664C169.017 85.664 168.377 85.856 167.929 86.24C167.513 86.624 167.225 87.28 167.065 88.208C166.905 89.104 166.825 90.352 166.825 91.952V93.44ZM190.004 110.384C187.732 110.384 186.004 109.936 184.82 109.04C183.668 108.112 182.884 106.816 182.468 105.152C182.084 103.488 181.892 101.552 181.892 99.344V92.96C181.892 90.624 182.1 88.64 182.516 87.008C182.932 85.344 183.716 84.08 184.868 83.216C186.052 82.32 187.764 81.872 190.004 81.872C192.02 81.872 193.572 82.208 194.66 82.88C195.78 83.52 196.548 84.496 196.964 85.808C197.38 87.088 197.588 88.688 197.588 90.608V92.24H192.932V90.56C192.932 89.344 192.852 88.384 192.692 87.68C192.532 86.976 192.244 86.464 191.828 86.144C191.412 85.824 190.82 85.664 190.052 85.664C189.22 85.664 188.58 85.856 188.132 86.24C187.684 86.624 187.38 87.28 187.22 88.208C187.092 89.104 187.028 90.336 187.028 91.904V100.64C187.028 103.008 187.252 104.592 187.7 105.392C188.148 106.192 188.948 106.592 190.1 106.592C190.964 106.592 191.588 106.4 191.972 106.016C192.388 105.6 192.644 105.024 192.74 104.288C192.868 103.552 192.932 102.72 192.932 101.792V99.536H197.588V101.456C197.588 103.312 197.364 104.912 196.916 106.256C196.5 107.6 195.732 108.624 194.612 109.328C193.524 110.032 191.988 110.384 190.004 110.384ZM202.299 110V71.12H207.435V85.136C208.363 84.24 209.403 83.472 210.555 82.832C211.707 82.192 212.987 81.872 214.395 81.872C215.483 81.872 216.315 82.16 216.891 82.736C217.499 83.312 217.915 84.032 218.139 84.896C218.395 85.76 218.523 86.64 218.523 87.536V110H213.387V89.024C213.387 88.032 213.243 87.264 212.955 86.72C212.667 86.176 212.075 85.904 211.179 85.904C210.571 85.904 209.931 86.08 209.259 86.432C208.619 86.784 208.011 87.216 207.435 87.728V110H202.299ZM222.33 110L232.794 71.12H237.258L226.746 110H222.33ZM241.44 108.272V103.136L251.328 95.936L241.44 88.832V83.648L255.216 93.392V98.528L241.44 108.272Z" fill="black"/>
<path d="M169.025 147V145.1L174.175 137.075C174.558 136.475 174.908 135.917 175.225 135.4C175.558 134.883 175.825 134.342 176.025 133.775C176.242 133.192 176.35 132.525 176.35 131.775C176.35 130.842 176.2 130.108 175.9 129.575C175.6 129.042 175.075 128.775 174.325 128.775C173.692 128.775 173.2 128.95 172.85 129.3C172.5 129.65 172.258 130.108 172.125 130.675C171.992 131.242 171.925 131.85 171.925 132.5V133.175H169.25V132.475C169.25 131.258 169.408 130.217 169.725 129.35C170.058 128.467 170.583 127.783 171.3 127.3C172.033 126.817 173 126.575 174.2 126.575C175.833 126.575 177.05 127.042 177.85 127.975C178.65 128.892 179.05 130.167 179.05 131.8C179.05 132.667 178.942 133.425 178.725 134.075C178.525 134.725 178.258 135.333 177.925 135.9C177.592 136.467 177.225 137.05 176.825 137.65L172.175 144.75H178.575V147H169.025ZM181.513 147V126.75H184.338V144.975H189.513V147H181.513ZM191.4 147L191.775 126.75H194.55L198.125 143.175L201.725 126.75H204.475L204.85 147H202.575L202.35 132.3L198.925 147H197.325L193.925 132.3L193.7 147H191.4ZM207.954 147V126.75H215.779V128.775H210.779V135.525H214.654V137.525H210.779V147H207.954ZM216.18 147L220.48 126.75H223.205L227.53 147H224.855L223.93 141.9H219.805L218.83 147H216.18ZM220.18 139.875H223.555L221.855 130.75L220.18 139.875Z" fill="black"/>
</svg>
